<?xml version="1.0" standalone="no"?>
<!DOCTYPE svg PUBLIC "-//W3C//DTD SVG 1.1//EN" "http://www.w3.org/Graphics/SVG/1.1/DTD/svg11.dtd" >
<svg xmlns="http://www.w3.org/2000/svg" xmlns:xlink="http://www.w3.org/1999/xlink" version="1.1">
<metadata>
Created by FontForge 20230101 at Thu May 02 03:24:08 2024
</metadata>
<defs>
<font id="mana" horiz-adv-x="1024" >
  <font-face 
    font-family="mana"
    font-weight="400"
    font-stretch="normal"
    units-per-em="1024"
    panose-1="0 0 0 0 0 0 0 0 0 0"
    ascent="960"
    descent="-64"
    bbox="-0.2 -64.2222 5117 960"
    underline-thickness="0"
    underline-position="0"
    unicode-range="U+0001-FFFD"
  />
<missing-glyph 
 />
    <glyph glyph-name=".notdef" unicode="&#xfffd;" 
 />
    <glyph glyph-name="uni0000" horiz-adv-x="0" 
d="M0 0v0v0v0z" />
    <glyph glyph-name="uni0001" horiz-adv-x="0" 
d="M0 0v0v0v0z" />
    <glyph glyph-name="space" unicode=" " horiz-adv-x="512" 
d="M0 0v0v0v0z" />
    <glyph glyph-name="uniE600" unicode="&#xe600;" 
d="M1021 373q-52 29 -86 44t-48 15q-11 0 -19.5 -8.5t-14.5 -24.5q-6 -17 -18 -25t-31 -8q-7 0 -22 2.5t-38 8.5q-13 -20 -19.5 -32.5t-6.5 -17.5q0 -8 5.5 -16.5t16.5 -18.5t20.5 -15.5t16.5 -5.5q5 0 11.5 1t15.5 4q8 2 13.5 3t8.5 1q8 0 12 -15.5t4 -45.5
q0 -29 -6.5 -73.5t-20.5 -104.5q-17 69 -35.5 103.5t-38.5 34.5q-3 0 -8.5 -2.5t-13.5 -6.5q-9 -4 -15 -6t-10 -2q-20 0 -37.5 18t-32.5 54q-31 -5 -46.5 -21t-15.5 -43q0 -13 6 -24t19 -19q12 -8 18.5 -13.5t6.5 -9.5q0 -18 -27 -46t-80 -65q-28 -21 -47.5 -35t-30.5 -22
q10 12 19 28t19 35q11 23 16 40t5 29q0 7 -7.5 16.5t-23.5 21.5q-15 12 -23 24.5t-8 26.5q0 11 4 25.5t13 31.5q-9 10 -19.5 15t-22.5 5q-27 0 -40.5 -9t-13.5 -26q0 12 0 3v-40q1 -22 -16 -33t-51 -11q-27 0 -71 6t-106 18q70 18 105 38t35 43q0 -3 -1.5 5t-3.5 27
q-3 21 12 40t47 36q-6 31 -22 46.5t-43 15.5q-4 0 -11 -7t-18 -22q-11 -14 -21 -21t-20 -7q-16 0 -37 17.5t-46 52.5q-12 18 -30.5 44t-43.5 60q15 -8 30.5 -16t31.5 -16q20 -10 36 -14.5t28 -4.5q10 0 19 8t18 25q10 16 21.5 24.5t26.5 8.5q2 0 15.5 -4t38.5 -12
q13 19 19.5 33.5t6.5 24.5q0 8 -5 17t-15 20q-10 10 -18.5 15.5t-16.5 5.5q-4 0 -9 -1.5t-12 -3.5t-12.5 -3t-8.5 -1q-12 0 -18.5 15.5t-6.5 45.5q0 8 8 54t24 131q-1 -10 3.5 -29t13.5 -47q11 -34 24.5 -50.5t29.5 -16.5q3 0 8 2t13 6q9 4 15 6t11 2q16 0 28.5 -9t22.5 -26
l20 -36q15 0 26.5 5t21.5 15q9 10 13.5 22t4.5 26q0 15 -6 26.5t-18 18.5q-13 8 -19 14t-6 10q0 14 22 38t67 58q35 27 58.5 42.5t34.5 20.5q-29 -39 -43.5 -67.5t-14.5 -47.5q0 -9 5.5 -19t16.5 -21q15 -13 23 -22t10 -14q7 -16 6 -37t-9 -48q18 -13 32 -19.5t23 -6.5
q20 0 29.5 10t9.5 31q0 2 -0.5 8t-2.5 17t-2.5 17t0.5 7q3 10 21.5 14.5t52.5 4.5q22 0 66.5 -6t112.5 -18q-14 -4 -36.5 -10l-52.5 -14q-27 -8 -40 -17t-13 -20q0 -4 1.5 -12t4.5 -20q4 -11 5.5 -19.5t1.5 -14.5q0 -9 -6 -17.5t-18 -17.5l-46 -32q8 -15 13.5 -23.5
t8.5 -11.5q6 -8 15 -12t21 -4q8 0 15.5 7t14.5 21q6 14 17 21t26 7q18 0 38.5 -16.5t43.5 -50.5l32.5 -47.5t46.5 -66.5v0zM722 451q0 43 -15.5 80.5t-47.5 68.5q-32 32 -69.5 48t-80.5 16t-81 -16t-70 -47q-31 -31 -47.5 -69t-16.5 -81q-1 -43 15 -80.5t49 -68.5
q32 -32 70 -47.5t81 -15.5q46 0 84.5 15t68.5 45q31 30 46 68t14 84v0zM702 451q0 -41 -14 -75t-41 -61q-28 -27 -62.5 -40.5t-75.5 -13.5q-39 0 -73 13.5t-63 41.5q-28 28 -42 61.5t-14 73.5q0 39 14 72.5t43 61.5t62.5 42t72.5 14t73 -14.5t63 -42.5q28 -28 42.5 -61.5
t14.5 -71.5v0z" />
    <glyph glyph-name="uniE601" unicode="&#xe601;" 
d="M740 29q-46 -47 -102.5 -70t-123.5 -23q-75 0 -134.5 25.5t-103.5 77.5q-41 49 -62 111t-21 138q0 41 9 84.5t26.5 90t44.5 96t62 101.5q29 43 60.5 83t65.5 77.5t70.5 72.5t75.5 67q-11 -52 -16.5 -89t-5.5 -59q0 -51 15.5 -100.5t47.5 -97.5q39 -57 69 -99.5t50 -69.5
q32 -48 48 -95t16 -93q0 -67 -23 -124.5t-68 -103.5zM738 377q-12 27 -26.5 45.5t-30.5 27.5q2 -5 3.5 -12t1.5 -16q0 -17 -5 -41.5t-15 -56.5l-21 -65q0 -29 14 -43t43 -14q30 0 45 20t15 60q0 20 -6 44t-18 51v0z" />
    <glyph glyph-name="uniE602" unicode="&#xe602;" 
d="M1005 465q0 -50 -18 -84.5t-55 -52.5q-11 -5 -44 -12.5t-90 -16.5q-36 -6 -54.5 -20t-18.5 -36v-123q0 -4 1.5 -15.5t3.5 -31.5l5 -49q0 -11 -3 -29.5t-8 -44.5q-14 -3 -31 -6.5t-36 -7.5q-6 23 -9 38.5t-3 23.5q0 4 1 10t3 13q2 8 3 13.5t1 9.5q0 5 -5 20t-14 39h-24
q-2 -4 -3 -9t0 -11q3 -13 4 -24t1 -20q-13 -9 -31 -21t-41 -27q-5 1 -7 2t-1 1v108q-1 3 -5 4.5t-10 1.5h-18l-18 -143q-11 -1 -24 -1t-28 1q-5 25 -14.5 62t-23.5 87h-12q-8 -27 -12.5 -41.5t-5.5 -16.5q0 -3 1 -9t3 -15q2 -8 2.5 -14t0.5 -9q0 -2 -0.5 -8t-2.5 -15l-4 -36
q-2 -2 -4 -2.5t-4 -0.5q-23 0 -38 5.5t-23 16.5q-7 12 -10 28t-2 36l12 183q0 2 1 5t2 7q2 4 3 6.5t1 3.5q0 6 -6.5 18.5t-19.5 30.5q-3 1 -14.5 3.5t-32.5 7.5q-13 3 -38.5 8t-63.5 13q-53 10 -79 52t-26 117q0 55 11.5 106t34 97t57 87.5t79.5 78.5q4 -21 10.5 -48.5
t15.5 -61.5q7 -1 22 -4.5t37 -8.5q5 -2 28 -10.5t65 -23.5q-21 13 -49 34t-62 50q-13 15 -19.5 40.5t-6.5 61.5q0 8 14.5 18t43.5 21q26 11 45.5 17t32.5 7q41 6 72.5 8.5t53.5 2.5q47 0 90 -6t81.5 -18t72 -30.5t62.5 -42.5q-19 -22 -51.5 -45.5t-78.5 -48.5q18 -1 44.5 6
t61.5 22q35 16 50 23.5t9 7.5q7 0 19 -12.5t30 -36.5q14 -18 25 -34.5t19 -30.5q24 -43 40.5 -90t24.5 -97q0 -17 0.5 -30t1.5 -20v-12v0v0zM423 437q0 33 -14 64t-43 60q-28 29 -58.5 44t-63.5 15q-29 0 -54.5 -12.5t-47.5 -36.5q-22 -25 -33 -52t-11 -57q0 -26 12.5 -42.5
t37.5 -24.5q16 -5 38.5 -7.5t51.5 -3.5h83q51 -1 76.5 12.5t25.5 40.5v0zM589 249v47q-6 10 -11 20t-11 21q-4 15 -12.5 36.5t-20.5 48.5l-17 -178q0 -10 -2 -15.5t-7 -5.5q-3 0 -5 1l-4 2q-5 81 -8 116t-3 24v53q-1 2 -3 3.5t-4 1.5q-26 -27 -39 -70t-13 -102q0 -33 3 -53
t9 -27q6 1 13 3.5t15 6.5q3 2 11.5 2.5t23.5 0.5q14 0 31.5 -4.5t38.5 -13.5q7 0 11 20.5t4 61.5v0zM932 461q0 30 -11.5 57.5t-33.5 51.5q-23 24 -49.5 36t-55.5 12q-32 0 -62 -14.5t-58 -43.5q-27 -30 -41 -60.5t-14 -62.5q0 -26 13 -39.5t39 -13.5h174q50 1 74.5 20
t24.5 57v0z" />
    <glyph glyph-name="uniE603" unicode="&#xe603;" 
d="M987 246q-33 -80 -99.5 -119.5t-165.5 -39.5q-19 0 -38.5 -2.5t-40.5 -6.5q-32 -7 -48 -16.5t-16 -21.5q0 -4 2.5 -8.5t8.5 -9.5q5 -5 9.5 -7.5t8.5 -2.5q-19 0 -6 -0.5t57 -1.5q45 -1 73 -1.5t40 -0.5q-33 -20 -77.5 -34t-99.5 -23t-121.5 -12.5t-143.5 -2.5
q-51 1 -94.5 23.5t-80.5 66.5q-35 42 -53 88.5t-18 98.5q0 54 18.5 101t55.5 85q36 38 82 57.5t101 19.5q12 0 28 -3t36 -8t33.5 -8t20.5 -3q28 0 63 11.5t77 35.5q41 23 61 34.5t18 11.5q-8 -80 -34.5 -133.5t-72.5 -80.5q-32 -19 -48.5 -37.5t-16.5 -37.5q0 -11 7 -20
t20 -16q11 -5 23 -8t24 -3q20 0 39.5 12.5t38.5 36.5t27.5 46t5.5 42q-2 23 -0.5 50t6.5 59q2 9 7.5 20.5t14.5 24.5q10 13 18.5 21.5t16.5 11.5q0 -7 -2.5 -18.5t-7.5 -27.5t-7.5 -27.5t-2.5 -19.5q0 -17 4.5 -29.5t13.5 -21.5q14 5 26 22t23 46q9 22 14 43t7 42
q-32 1 -62.5 15.5t-59.5 42.5q-30 27 -44.5 56.5t-14.5 61.5q0 5 1 10.5t2 10.5q5 -7 11.5 -17.5t16.5 -24.5q12 -19 22 -28.5t17 -9.5q9 0 13.5 9.5t4.5 28.5q0 24 -6.5 46t-19.5 42q-14 23 -32.5 35t-41.5 12q-11 0 -26.5 -5.5t-37.5 -17.5q-21 -11 -40.5 -17t-36.5 -6
q-5 0 -29 7t-65 21q73 12 110 23t37 21q0 26 -50.5 43.5t-151.5 26.5q-10 0 -28 1.5t-45 4.5q3 3 24.5 7.5t62.5 8.5q34 4 58 6t37 2q91 0 164.5 -22t131 -66t98.5 -109.5t65 -153.5q8 7 12.5 18.5t4.5 27.5q0 21 -6 47.5t-19 57.5q-4 12 -11.5 30.5t-16.5 43.5
q31 -40 54 -78.5t38.5 -76t23.5 -74t8 -72.5q0 -37 -8.5 -71t-26.5 -64q-11 -21 -32.5 -47.5t-52.5 -58.5t-52.5 -56.5t-32.5 -42.5q42 11 69 20t40 15q29 13 55.5 32.5t49.5 44.5q0 -9 -4 -24t-13 -35zM325 843q0 -14 -7.5 -22.5t-22.5 -12.5l-40 -6q-10 -5 -25.5 -26
t-36.5 -58q-2 12 -5.5 28t-7.5 36q-7 0 -18.5 -6.5t-27.5 -17.5q-7 -5 -18 -13t-26 -19q5 27 20 55t41 56q27 31 53.5 46.5t52.5 15.5q34 0 51 -14t17 -42v0zM590 703q0 -13 -7 -23.5t-22 -19.5q-14 -9 -27.5 -13t-27.5 -4q-18 0 -34.5 10t-30.5 31q-18 25 -35.5 41
t-36.5 24q4 4 8.5 5.5t10.5 1.5t18 -5t28 -16q16 -10 26.5 -15.5t15.5 -5.5q3 0 9.5 5.5t15.5 15.5q8 11 18 16t20 5q26 0 38.5 -13t12.5 -40v0z" />
    <glyph glyph-name="uniE604" unicode="&#xe604;" 
d="M1015 385q0 -14 -5.5 -27t-16.5 -24q-11 -12 -24 -18t-27 -6q-23 0 -40 11t-28 33l-67 3q-11 0 -32.5 -5t-52.5 -14q-34 -10 -53.5 -17.5t-24.5 -12.5q-8 -9 -14.5 -29t-11.5 -52q-5 -26 -7 -45t-2 -31q0 -20 3 -34t9 -23q7 -9 19.5 -16.5t31.5 -14.5q19 -6 30.5 -9
t16.5 -4h7.5t10.5 1h18q9 0 18.5 -1.5t20.5 -4.5q14 -4 20 -9.5t4 -13.5q-10 2 -27.5 0t-43.5 -8l41 -20q0 -9 -12.5 -13.5t-36.5 -4.5q-7 0 -15.5 1.5t-19.5 4.5q-12 3 -19 4.5t-11 1.5h-19q0 -7 -2.5 -18t-5.5 -25q-13 0 -27 7.5t-31 20.5q-17 14 -27 21t-15 7
q-4 0 -10 -7t-14 -21q-8 -13 -12 -22.5t-4 -14.5q-9 5 -17 14.5t-15 22.5q-3 10 -6 19.5t-7 18.5q-7 -1 -20.5 -16t-32.5 -45h-7q-2 3 -7 18t-15 43q-22 7 -43 10.5t-40 3.5q-10 0 -24 -2t-34 -6l-40 3q4 4 16.5 12t33.5 21q25 14 43.5 21t31.5 7h5t7 -1q3 -1 6 -1h5
q5 0 13 2.5t19 7.5q12 6 18.5 11t7.5 9q2 4 3 15t1 29q0 42 -11 72.5t-32 50.5q-19 18 -50 31t-74 21q-12 -41 -44 -61.5t-86 -20.5q-17 0 -34.5 10.5t-34.5 30.5q-17 21 -25.5 40t-8.5 37q0 26 11 48t33 40q-18 18 -27 37t-9 39q0 18 5.5 34t17.5 29q11 14 25.5 22t32.5 10
q-2 23 6 39t24 24q-8 8 -12 22t-4 35q0 23 8 43t24 36t35.5 23.5t43.5 7.5q26 0 47.5 -9t37.5 -27q21 72 66 107.5t114 35.5q36 0 68 -14.5t59 -43.5q10 -10 15 -16t5 -7q-9 0 -4.5 2t21.5 5q18 3 30.5 4.5t20.5 1.5q28 0 53 -10.5t46 -30.5q19 -19 32 -43t20 -52
q5 -1 13 -3.5t19 -5.5q16 -8 23.5 -21.5t7.5 -33.5q0 -3 -2.5 -10t-8.5 -17q46 -26 69 -62t23 -82q0 -13 -5 -31t-15 -41q19 -11 28 -27t9 -37v0zM422 322v19q0 16 -8 31.5t-24 28.5q-17 14 -33 21t-33 7q-20 0 -39 -5t-36 -14q38 2 81.5 -20t91.5 -68v0zM396 501
q-11 12 -20 24.5t-17 25.5q-31 -8 -46 -17t-15 -19q9 1 21.5 -1t29.5 -5q16 -4 28 -6t19 -2v0zM484 545v64q-17 2 -27.5 3.5t-14.5 1.5v-21zM671 586q-9 3 -25 10.5t-40 17.5v-123q34 19 50.5 43t14.5 52zM750 416l-31 39q-15 -11 -29.5 -21t-29.5 -21q-14 -10 -27 -21.5
t-24 -24.5q33 17 68 29t73 20v0z" />
    <glyph glyph-name="uniE605" unicode="&#xe605;" 
d="M166 417q0 47 5 92t15 88.5t25 85t35 80.5q24 50 53 86.5t63 61t72 37t81 12.5q84 0 150 -42t113 -125q20 -35 35 -72t25 -77t15 -83t5 -89q0 -47 -5 -92.5t-15 -88t-25 -83.5t-35 -79q-24 -48 -53 -84.5t-62.5 -60.5t-72 -36t-81.5 -12q-81 0 -146.5 41.5t-113.5 123.5
q-21 36 -36.5 73.5t-25.5 76.5t-15.5 80.5t-5.5 85.5v0zM311 474q0 -62 4.5 -117.5t14 -103.5t23.5 -89.5t32 -75.5q26 -49 59.5 -73t73.5 -24q49 0 85.5 25.5t61 75.5t36.5 126t12 177q0 88 -8 163t-23 137q-27 100 -72 150.5t-109 50.5q-48 0 -83.5 -24t-59 -73
t-35.5 -122t-12 -170v-33v0z" />
    <glyph glyph-name="uniE606" unicode="&#xe606;" 
d="M585 960v-821q0 -73 31 -110t93 -37h21v-56h-436v56h27q60 0 90 37t30 110v539q0 74 -26 111.5t-77 37.5h-44v54h16q63 0 121 20t110 59h44v0z" />
    <glyph glyph-name="uniE607" unicode="&#xe607;" 
d="M862 191l-75 -255h-627v54q23 26 73 77.5t127 128.5q47 47 93 96t92 101q22 25 39.5 47t30.5 41q27 39 40.5 79.5t13.5 81.5q0 40 -12.5 76t-37.5 66q-25 31 -57 46.5t-72 15.5q-43 0 -80.5 -14.5t-71 -43t-62.5 -72t-53 -100.5l-56 21q28 81 65 141.5t82 101t98 60.5
t115 20q61 0 112.5 -20.5t93.5 -62.5q43 -41 64.5 -92t21.5 -111q0 -39 -11.5 -77t-33.5 -76t-55.5 -75.5t-77.5 -73.5l-123 -102q-59 -49 -107.5 -95.5t-87.5 -89.5q-2 -2 -7.5 -8.5t-13.5 -15.5h327q38 0 66.5 7.5t47.5 22.5q17 13 33 38t32 62h54v0z" />
    <glyph glyph-name="uniE608" unicode="&#xe608;" 
d="M378 415l-25 48l17 11q49 30 94.5 60.5t86.5 61.5t62 66.5t21 75.5q0 26 -10 48.5t-30 40.5t-43 27t-50 9q-61 0 -126.5 -38t-134.5 -115l-43 33q36 54 76 95t83.5 68t91.5 40.5t99 13.5q46 0 85 -11t71 -34q36 -25 54 -59t18 -77q0 -31 -13 -61t-39 -60
q-14 -17 -40 -39.5t-63 -49.5l-21 -16q7 1 15 1.5t18 0.5q47 0 86 -18t70 -55q30 -36 45.5 -78t15.5 -90q0 -82 -34.5 -150.5t-103.5 -124.5q-64 -51 -137.5 -77t-157.5 -26q-76 0 -136.5 17t-104.5 50l31 43q52 -25 99 -37.5t89 -12.5q61 0 115.5 20.5t102.5 60.5
q48 41 72 91.5t24 110.5q0 40 -12 73.5t-37 61.5q-24 28 -55.5 42t-69.5 14q-36 0 -74.5 -13.5t-81.5 -41.5v0z" />
    <glyph glyph-name="uniE609" unicode="&#xe609;" 
d="M717 226v-86q0 -74 26 -111t77 -37h30v-56h-418v56h34q50 0 75.5 36.5t25.5 109.5v88h-419v88l442 646h127v-660h10q33 0 56.5 25t38.5 75h53l-25 -174h-133v0zM567 300v530l-357 -530h357z" />
    <glyph glyph-name="uniE60A" unicode="&#xe60a;" 
d="M319 943h371q36 0 57.5 4t28.5 13h53l-31 -140h-452l-44 -202q49 20 93 30t82 10q74 0 136.5 -25t113.5 -75q51 -49 76.5 -111t25.5 -136q0 -87 -33.5 -156.5t-99.5 -121.5q-61 -49 -136 -73t-163 -24q-52 0 -102.5 8t-99.5 23l21 52q41 -11 78 -17t69 -6q63 0 119 21
t104 63t72 94.5t24 115.5q0 54 -17.5 99t-53.5 80q-35 35 -80 52.5t-99 17.5q-50 0 -97 -17.5t-90 -51.5l-34 6l108 467v0z" />
    <glyph glyph-name="uniE60B" unicode="&#xe60b;" 
d="M340 516q57 54 114.5 80.5t115.5 26.5q63 0 113.5 -25t88.5 -75q35 -46 53 -101t18 -120q0 -71 -21 -133t-62 -116q-46 -58 -103 -87.5t-125 -29.5q-82 0 -147.5 35.5t-115.5 106.5q-44 62 -66 135.5t-22 159.5q0 45 6.5 88.5t19 85.5t31 82t43.5 78t54.5 70.5t63 60
t71 49t79.5 37.5q48 18 98 27t102 9v-54q-56 -3 -105 -15.5t-90.5 -35t-76.5 -54.5t-63 -74q-28 -43 -46.5 -96t-27.5 -115v0zM330 413q-1 -16 -1.5 -31.5t-0.5 -31.5q0 -59 10.5 -114.5t31.5 -106.5q26 -66 65.5 -99.5t91.5 -33.5q45 0 78.5 23t55.5 69q18 35 26.5 78
t8.5 93q0 53 -8.5 99t-24.5 84q-22 52 -56.5 78t-81.5 26q-57 0 -106 -33.5t-89 -99.5z" />
    <glyph glyph-name="uniE60C" unicode="&#xe60c;" 
d="M558 -64h-149v16q0 35 5.5 75t16.5 84.5t28 93.5t39 103q34 80 66.5 151.5t63.5 133t60.5 114t58.5 95.5l10 16h-348q-38 0 -67 -8t-48 -24q-20 -15 -34.5 -41.5t-24.5 -63.5h-58l63 279h37q17 -9 46 -13.5t70 -4.5h456v-78q-13 -18 -28.5 -46t-34.5 -67
q-19 -36 -36.5 -74.5t-34.5 -80.5t-33 -87t-32 -93q-22 -70 -39.5 -135.5t-29 -125.5t-17.5 -114.5t-6 -104.5z" />
    <glyph glyph-name="uniE60D" unicode="&#xe60d;" 
d="M393 455l-23 15q-50 34 -83 61t-49 48q-20 26 -30 56t-10 65q0 58 25 106t75 85q47 34 101 51.5t116 17.5q58 0 109.5 -15t95.5 -45q51 -34 77 -78.5t26 -99.5q0 -67 -48 -121.5t-144 -95.5q54 -26 95 -57t68.5 -67t41 -77t13.5 -87q0 -66 -26 -119t-78 -91
q-47 -36 -105.5 -53.5t-128.5 -17.5q-66 0 -122.5 16.5t-104.5 49.5q-54 37 -81.5 86t-27.5 110t29 111.5t87 90.5q16 10 41.5 24t60.5 31v0zM453 430q-79 -35 -118.5 -90.5t-39.5 -131.5q0 -49 16 -88.5t48 -68.5q32 -30 73 -45t91 -15q45 0 83 12t70 35q31 24 46.5 57
t15.5 75q0 64 -43 115.5t-128 90.5l-114 54v0zM571 532q69 31 104 76t35 105q0 42 -15 75t-44 58q-30 25 -66 37.5t-79 12.5q-36 0 -67.5 -9.5t-57.5 -28.5q-29 -20 -43.5 -48t-14.5 -62q0 -42 20 -76t61 -60q8 -5 43 -22t98 -45l26 -13v0z" />
    <glyph glyph-name="uniE60E" unicode="&#xe60e;" 
d="M684 377q-57 -53 -114.5 -80t-115.5 -27q-63 0 -113.5 25t-87.5 75q-36 46 -53.5 101t-17.5 120q0 70 20.5 132.5t62.5 117.5q44 60 100.5 89.5t124.5 29.5q83 0 149 -36t115 -107q44 -63 66 -137.5t22 -160.5q0 -62 -10 -118t-30.5 -108t-50.5 -98.5t-71 -88.5
q-40 -42 -86 -74t-96.5 -53t-106 -32t-116.5 -11v53q37 2 66.5 6.5t52.5 11.5q62 19 111 51.5t85.5 79t59.5 106.5t34 133v0zM694 481q1 16 1.5 31.5t0.5 30.5q0 60 -10.5 115t-31.5 105q-27 67 -67 100t-91 33q-45 0 -78 -23t-55 -68q-17 -36 -26 -78.5t-9 -92.5
q0 -53 8.5 -99t24.5 -84q23 -51 57.5 -77t80.5 -26q57 0 105.5 33t89.5 100v0z" />
    <glyph glyph-name="uniE60F" unicode="&#xe60f;" 
d="M264 889v-709q0 -63 27 -95t81 -32h19v-48h-378v48h24q52 0 78 32t26 95v465q0 64 -22.5 96t-68.5 32h-37v48h14q56 0 105.5 17t94.5 51h37zM402 420q0 83 17 159.5t52 145.5q44 87 103.5 130t135.5 43q73 0 131 -37t100 -111q35 -61 52.5 -130.5t17.5 -149.5
q0 -83 -17.5 -158.5t-52.5 -144.5q-43 -84 -102.5 -126.5t-134.5 -42.5q-72 0 -129.5 36.5t-99.5 109.5q-37 62 -55 131t-18 145v0zM530 472q0 -70 7.5 -133.5t22.5 -119.5q23 -86 61 -129.5t91 -43.5q42 0 74 22.5t53.5 67t32.5 111t11 156.5q0 110 -12 192.5t-35 137.5
t-57.5 82.5t-81.5 27.5q-42 0 -73 -21.5t-52 -64.5t-31.5 -107t-10.5 -149v-29v0z" />
    <glyph glyph-name="uniE610" unicode="&#xe610;" 
d="M359 898v-722q0 -65 26.5 -97t80.5 -32h18v-49h-385v49h25q55 0 82 32t27 97v474q0 65 -23 97.5t-69 32.5h-39v49h15q56 0 107 17.5t96 51.5h39v0zM820 898v-722q0 -65 26.5 -97t80.5 -32h18v-49h-385v49h26q54 0 81 32t27 97v474q0 65 -23 97.5t-69 32.5h-38v49h14
q57 0 107.5 17.5t96.5 51.5h38v0z" />
    <glyph glyph-name="uniE611" unicode="&#xe611;" 
d="M268 898v-719q0 -64 27 -96.5t80 -32.5h18v-50h-382v50h22q54 0 81 32.5t27 96.5v473q0 65 -22 97.5t-67 32.5h-39v49h14q56 0 106.5 16.5t95.5 50.5h39v0zM1013 220l-65 -222h-547v49q20 22 63 67t111 112q40 40 80 83t80 89q20 22 35.5 40.5t26.5 33.5q23 36 34.5 71.5
t11.5 70.5q0 36 -10.5 67t-32.5 58q-21 27 -49.5 40.5t-63.5 13.5q-74 0 -132 -50t-100 -151l-49 18q26 70 58 123t71.5 88t85.5 52.5t99 17.5q52 0 97 -18t82 -53q38 -36 56.5 -80.5t18.5 -97.5q0 -68 -38.5 -134.5t-116.5 -130.5l-106 -86q-52 -43 -94.5 -83.5
t-75.5 -78.5q-3 -3 -7.5 -8t-11.5 -13h286q32 0 56.5 6t40.5 18q16 13 30.5 34.5t27.5 53.5h48v0z" />
    <glyph glyph-name="uniE612" unicode="&#xe612;" 
d="M273 897v-722q0 -63 27.5 -95t81.5 -32h17v-49h-384v49h25q55 0 82.5 32t27.5 95v474q0 65 -23.5 98t-69.5 33h-38v49h15q56 0 106.5 17t94.5 51h38v0zM597 419l-23 41l17 10q43 26 82.5 53t76.5 54q36 27 54.5 58t18.5 65q0 24 -9 43.5t-27 35.5q-18 15 -38 23t-42 8
q-55 0 -113 -33.5t-119 -99.5l-38 28q31 48 66 83.5t73.5 59.5t80.5 36t88 12q40 0 73.5 -10t61.5 -30q32 -22 48 -52t16 -68q0 -27 -11 -53t-34 -52q-14 -14 -36.5 -33.5t-54.5 -44.5l-18 -15q6 1 13 1.5t16 0.5q42 0 76 -16t61 -47q26 -32 39.5 -68.5t13.5 -77.5
q0 -72 -30.5 -132t-91.5 -107q-55 -46 -119 -69t-137 -23q-68 0 -120.5 14.5t-90.5 43.5l26 38q45 -21 86 -31.5t78 -10.5q53 0 100.5 17.5t89.5 52.5t62.5 79t20.5 96q0 35 -10 65t-31 55q-21 24 -48.5 36.5t-62.5 12.5q-30 0 -63.5 -12.5t-70.5 -36.5v0z" />
    <glyph glyph-name="uniE613" unicode="&#xe613;" 
d="M265 887v-705q0 -63 26 -94t78 -31h16v-48h-372v48h24q53 0 79.5 31t26.5 94v463q0 63 -22.5 94.5t-66.5 31.5h-37v48h15q53 0 102 17t93 51h38v0zM879 259v-74q0 -61 21.5 -92t64.5 -31h24v-48h-348v48h27q43 0 64.5 30.5t21.5 90.5v76h-350v73l370 544h105v-555h9
q27 0 46.5 21t32.5 64h44l-22 -147h-110v0zM783 332v463l-310 -463h310z" />
    <glyph glyph-name="uniE614" unicode="&#xe614;" 
d="M295 888v-702q0 -62 26 -93.5t78 -31.5h18v-47h-374v47h25q53 0 79.5 31.5t26.5 93.5v460q0 64 -22.5 95.5t-67.5 31.5h-37v48h14q54 0 103.5 16.5t93.5 50.5h37zM542 870h319q31 0 49.5 3.5t24.5 10.5h46l-27 -120h-389l-37 -172q41 16 78 24.5t70 8.5q63 0 116.5 -21
t97.5 -63q44 -43 65.5 -95.5t21.5 -116.5q0 -74 -28 -133.5t-84 -104.5q-53 -41 -117 -62t-139 -21q-44 0 -87 7t-86 20l18 44q35 -10 66.5 -15t58.5 -5q55 0 102.5 18t88.5 55q41 36 61.5 81t20.5 98q0 47 -15 85.5t-46 68.5q-30 30 -68 45t-84 15q-43 0 -83 -15t-78 -45
l-29 5l93 400v0z" />
    <glyph glyph-name="uniE615" unicode="&#xe615;" 
d="M584 18v44q47 6 70.5 19.5t23.5 35.5q0 16 -6 32t-19 32l-175 215l-138 -163q-26 -30 -39 -54.5t-13 -43.5q0 -30 24 -48.5t71 -24.5v-44h-336v44q32 6 59 17.5t50 28.5q15 12 36 34t48 53l208 240l-240 291q-24 29 -42 47.5t-31 26.5q-17 13 -41.5 21t-55.5 11v46h397
v-44q-45 -9 -67.5 -22.5t-22.5 -32.5q0 -12 6.5 -26t18.5 -29l158 -192l128 157q17 21 26 39.5t9 34.5q0 27 -21.5 44t-63.5 25v46h316v-44q-21 -5 -35 -9t-22 -7q-26 -13 -65.5 -49.5t-92.5 -97.5q-9 -10 -45.5 -54.5t-99.5 -123.5l255 -314q41 -52 83.5 -81t85.5 -36v-44
h-402v0z" />
    <glyph glyph-name="uniE616" unicode="&#xe616;" 
d="M581 206q0 -42 7 -71t20 -46q14 -16 36.5 -24.5t55.5 -8.5l10 1v-49h-397v49h13q32 0 55 8t36 24q14 17 20.5 46t6.5 69v173l-252 370q-8 10 -15 19.5t-13 16.5q-5 8 -10.5 14t-10.5 11q-9 7 -18 12t-18 8t-21 5.5t-27 3.5v51h385v-49q-29 -3 -48.5 -7t-29.5 -9
q-11 -6 -16 -16t-5 -25q0 -6 1.5 -12.5t3.5 -13.5l6.5 -13t7.5 -14l196 -284l144 211q10 14 17.5 26t11.5 23q5 10 7.5 19.5t4.5 18.5v3v2v3v3q0 20 -5.5 34.5t-16.5 24.5t-30 16t-46 8v51h318v-49q-7 -2 -14.5 -3.5t-13.5 -3.5q-7 -3 -13 -6t-12 -7q-10 -5 -20.5 -14.5
t-21.5 -21.5q-11 -13 -24.5 -30.5t-28.5 -40.5l-236 -335v-171v0v0z" />
    <glyph glyph-name="uniE617" unicode="&#xe617;" 
d="M854 8h-742v38l588 789h-261q-33 -1 -57.5 -4.5t-42.5 -9.5q-17 -6 -33 -17.5t-31 -29.5q-2 -1 -3 -2.5t-2 -2.5t-2 -2.5t-2 -2.5q-3 -4 -5.5 -7.5t-4.5 -6.5q-2 -2 -4 -5.5t-4 -6.5l-2 -4l-2 -4q-2 -2 -3 -3.5t-2 -3.5q-2 -4 -3.5 -8t-3.5 -8l-4 -10t-5 -10l-46 1v200
h704v-35l-593 -792h256q29 -1 52 0t40 3q18 2 33.5 6t30.5 10q2 1 4 1.5t3 1.5q2 1 3.5 1.5t2.5 1.5q9 4 18 9t17 11t16.5 13t17.5 14q5 6 11 12.5t12 12.5q6 7 12 14.5t12 16.5l34 48h49l-58 -229v0z" />
    <glyph glyph-name="uniE618" unicode="&#xe618;" 
d="M800 449q0 42 -13 82.5t-39 73.5q-13 14 -24 29t-24 28q-30 29 -70 38t-76 28q-2 18 -6 36.5t0 37.5q1 6 2 12.5t-2 12.5q-9 21 -5.5 43.5t1.5 45.5q-1 11 -2.5 24t-12.5 20q-3 -24 -10.5 -47t-14.5 -46q-4 -18 -6 -36.5t-9 -35.5q5 -17 -2.5 -31.5t-18.5 -27.5
q-23 -12 -48.5 -18.5t-46.5 -24.5q-14 -12 -29.5 -23t-31.5 -20q-12 -16 -24 -31.5t-17 -34.5q-22 -26 -29.5 -58.5t-19.5 -63.5q0 -46 11 -92t40 -83q21 -17 37.5 -38t36.5 -38q20 -12 41 -22t42 -21q13 -3 27 -5.5t27 -5.5q11 -56 21 -112t32 -109q7 22 9 44.5t8 44.5
q9 33 0 66t1 65q15 13 37.5 11.5t38.5 10.5q33 19 64.5 40.5t54.5 51.5q9 17 22.5 32t13.5 36q0 28 10 55t4 56v0zM483 220q-24 5 -45.5 15.5t-40.5 24.5q-21 14 -33 36t-33 37q-20 23 -21.5 52.5t-9.5 56.5q3 19 6.5 38t5.5 39q9 15 21 28.5t16 32.5q14 20 33.5 35t35.5 33
q13 14 30.5 12.5t34.5 -1.5q-2 -15 -2.5 -31t3.5 -32q2 -9 5 -18.5t1 -19.5q-3 -21 1 -42.5t-2 -42.5q-11 -43 -4.5 -87t7.5 -89q-2 -19 -3.5 -38.5t-5.5 -38.5v0zM717 330q-15 -11 -28.5 -24t-26.5 -26q-24 -16 -48 -31.5t-51 -23.5q2 20 3 40t-5 39q-16 44 -5 89.5
t14 89.5q-3 27 -3.5 54t-13.5 51q-1 18 5 36t11 35q18 -7 35.5 -17t32.5 -23q18 -14 41 -26.5t27 -38.5q2 -17 14.5 -29.5t11.5 -29.5q-1 -41 0 -83.5t-14 -81.5v0z" />
    <glyph glyph-name="uniE619" unicode="&#xe619;" 
d="M512 948l100 -141l24 41l45 1l87 42l7 -97l22 -38l-25 -42l173 -16l-72 -157h48l22 -39l80 -54l-80 -54l-22 -39h-48l72 -157l-173 -16l25 -42l-22 -39l-7 -96l-87 42l-45 1l-24 41l-100 -141l-100 141l-24 -41l-45 -1l-87 -42l-7 97l-22 38l25 42l-173 16l72 157h-48
l-22 39l-80 54l80 54l22 39h48l-72 157l173 16l-25 42l22 38l7 97l87 -42l45 -1l24 -41l100 141v0zM512 291l-72 -125l72 -126l72 126zM322 819l-36 -21v-41l36 -21l138 -258l-293 -9l-36 20l-35 -20v-42l35 -20l36 20l293 -9l-138 -258l-36 -21v-41l36 -21l36 21v41
l154 249l154 -249v-41l36 -21l36 21v41l-36 21l-138 258l293 9l36 -20l35 20v42l-35 20l-36 -20l-293 9l138 258l36 21v41l-36 21l-36 -21v-41l-154 -249l-154 249v41l-36 21v0zM648 370l72 -126h145l-73 125l-144 1v0zM376 370l-144 -1l-73 -125h145l72 126v0zM865 652
h-145l-72 -126l145 1zM159 652l73 -125l144 -1l-72 126h-145zM512 856l-72 -126l72 -125l72 125z" />
    <glyph glyph-name="uniE61A" unicode="&#xe61a;" 
d="M872 441h-412l151 107q-42 33 -90.5 50t-103.5 17q-28 0 -46.5 -5.5t-28.5 -15.5q-11 -11 -16 -30t-5 -46q0 -38 10 -77.5t29.5 -80t49 -82.5t68.5 -85l-119 -121q-52 63 -91 123t-65 116.5t-38.5 109.5t-12.5 102q0 60 17.5 107.5t53.5 82.5t84 52.5t107 17.5
q36 0 74 -7t77.5 -20.5t80.5 -34.5t84 -48l89 151l53 -383v0z" />
    <glyph glyph-name="uniE61B" unicode="&#xe61b;" 
d="M505 808v-412l107 151q33 -42 50 -90.5t17 -103.5q0 -28 -5.5 -46.5t-15.5 -28.5q-11 -11 -30 -16t-46 -5q-38 0 -77.5 10t-80 29.5t-82.5 49t-85 68.5l-121 -119q63 -52 123 -91t116.5 -65t109.5 -38.5t102 -12.5q60 0 107.5 17.5t82.5 53.5t52.5 84t17.5 107
q0 36 -7 74t-20.5 77.5t-34.5 80.5t-48 84l151 89l-383 53v0z" />
    <glyph glyph-name="uniE61C" unicode="&#xe61c;" 
d="M991 359l-118 -142l-28 29q8 21 13.5 40.5t7.5 37.5t1 34.5t-5 31.5q0 2 -0.5 4t-1.5 4q0 1 -1 3t-2 3q-3 10 -7.5 19t-11.5 17q-6 9 -15.5 19t-21.5 22l-84 86l-390 -391q-26 -25 -40 -47.5t-16 -41.5q-2 -18 7.5 -38t29.5 -40l12 -10l-31 -30l-256 256l30 30l13 -12
q20 -21 39.5 -30.5t38.5 -7.5t41 15.5t47 39.5l391 391l-87 87q-18 18 -34 30t-29 19t-28 10t-32 2h-5.5h-4.5q-3 -1 -5.5 -1t-5.5 -1q-5 0 -9.5 -0.5t-8.5 -1.5t-8 -1.5t-8 -0.5q-1 -1 -2 -1t-2 -1h-2.5h-2.5q-5 -1 -10 -2.5t-10 -3.5q-6 -1 -13 -3t-15 -4l-27 28l139 121
l568 -568v0z" />
    <glyph glyph-name="uniE61D" unicode="&#xe61d;" 
d="M650 874q-118 -5 -130 -52t8 -111.5t33.5 -135t-52.5 -123.5v0v0v0v0q-1 0 -1.5 -0.5t-1.5 -0.5q-46 -19 -92.5 -1t-84.5 31.5t-62.5 1t-25.5 -91.5q49 73 85.5 38.5t117.5 -30.5q-40 -51 -44.5 -120t-69.5 -83q-60 -13 -110 12t-86 69.5t-54.5 98.5t-15.5 100
q9 101 49.5 174.5t101.5 120.5t137 68t154 16q-104 21 -196.5 -7.5t-162 -88t-109.5 -142.5t-37 -172q3 -102 30.5 -178.5t76 -128.5t116 -80.5t150.5 -35.5q118 5 130 52t-8 111.5t-33.5 135t52.5 123.5v0v0v0v0q1 0 1.5 0.5t1.5 0.5q46 19 92.5 1t84.5 -31.5t62.5 -1
t25.5 91.5q-49 -73 -85.5 -38.5t-117.5 30.5q40 51 44.5 120t69.5 83q60 13 110 -12t86 -69.5t54.5 -98.5t15.5 -100q-9 -101 -49.5 -174.5t-101.5 -120.5t-137 -68t-154 -16q104 -21 196.5 7.5t162 88t109.5 142.5t37 172q-3 102 -30.5 178.5t-76 128.5t-116 80.5
t-150.5 35.5v0z" />
    <glyph glyph-name="uniE61E" unicode="&#xe61e;" 
d="M256 898h512q10 -3 19 -9t12 -16q3 -17 -0.5 -34t-1.5 -34q2 -15 -1.5 -29.5t-0.5 -29.5q6 -8 14.5 -13.5t14.5 -14.5q1 -3 3 -6.5t3 -7.5v-27q-3 -8 -8 -15.5t-12 -13.5q-7 -5 -14 -10.5t-10 -13.5q-14 -56 -32 -110t-44 -105q-6 -13 -17 -22l-22 -18
q-15 -12 -32.5 -21.5t-35.5 -17.5q-11 -5 -22.5 -9.5t-19.5 -14.5q-2 -8 -1 -15t2 -15q2 -24 4 -48.5t4 -48.5q3 -13 2.5 -26.5t4.5 -26.5q9 -20 26 -34t36 -24q17 -8 36 -14t38 -5q15 1 29.5 -2t27.5 -10q8 -4 9 -13t-5 -15q-7 -5 -15 -7t-15 -4h-464q-8 2 -15.5 4t-14.5 7
q-6 6 -5.5 14.5t7.5 12.5q15 9 33 11.5t35 1.5q27 3 52 13.5t46 26.5q10 8 18 18.5t12 23.5q4 11 3.5 23.5t2.5 24.5q2 28 4.5 56.5t5.5 56.5v10.5t-5 8.5q-13 10 -28 15t-28 13q-20 9 -38.5 22t-34.5 28q-10 9 -16 20.5t-12 23.5q-21 46 -37 94t-28 97q-2 9 -10.5 14.5
t-15.5 12.5q-6 5 -10.5 12t-6.5 15v26q2 13 11 20.5t18 15.5q8 5 7.5 14.5t-1.5 17.5q-3 14 -2 29.5t-1 30.5q-1 10 -2 20.5t1 20.5q4 10 12.5 16t18.5 9v0z" />
    <glyph glyph-name="uniE61F" unicode="&#xe61f;" 
d="M753 902h47q-35 -31 -75.5 -45.5t-78.5 -35.5q-51 -22 -92.5 -58.5t-85.5 -70.5q-41 -32 -84 -62.5t-77 -71.5q-34 -40 -67.5 -81t-53.5 -90q8 -19 15.5 -38.5t13.5 -39.5q59 54 118.5 107.5t123 103t131 92t141.5 73.5q72 29 144 60.5t150 38.5q-15 -26 -37.5 -39.5
t-45.5 -25.5q-47 -22 -93 -47.5t-90 -54.5t-85 -62t-78 -71q-35 -39 -73.5 -74t-78 -69t-79 -68.5t-76.5 -71.5q-30 -31 -56 -65.5t-59 -63.5q-22 -18 -44 1t-17 43q3 37 10.5 77.5t-18.5 73.5q-22 18 -50.5 28t-48.5 29l-1.5 6.5t-1.5 13.5q-1 6 1 15l2 9q12 56 50 99.5
t74 85.5q40 45 82.5 87t93.5 74q36 19 74.5 32t74.5 34q35 19 71 37.5t73 34.5t75.5 29t80.5 21v0zM701 368q38 22 77 44.5t79 41.5t81.5 34.5t84.5 24.5q-35 -42 -75.5 -63.5t-77.5 -46.5q-40 -25 -79.5 -52t-79.5 -54q-54 -36 -101 -81.5t-90 -94.5q-29 -31 -53 -67.5
t-62 -59.5h-38q-21 14 -32.5 36t-2.5 47q11 54 56.5 82.5t84.5 58.5q54 43 110.5 81t117.5 69v0z" />
    <glyph glyph-name="uniE620" unicode="&#xe620;" 
d="M507 869h9q3 -8 5 -16t3 -16l10 -96t10 -95.5t10 -95.5l10 -96q2 -11 3.5 -22.5t9.5 -19.5q9 -7 18 -1t14 13q25 33 50 66.5t50 66.5l50 66t50 67q5 7 12 13t16 11q-1 -10 -2.5 -20t-5.5 -19q-30 -72 -58.5 -144t-58.5 -144q-3 -10 -6.5 -20.5t0.5 -20.5q5 -10 16 -8
t19 4q57 23 113.5 46t112.5 46q14 6 28 11t29 7v-9q-9 -11 -20.5 -20t-21.5 -19q-46 -39 -91.5 -78t-91.5 -77q-8 -7 -14 -15.5t-5 -19.5q3 -9 11.5 -13.5t16.5 -7.5q54 -13 108 -27t108 -27v-10q-66 -14 -131.5 -30.5t-131.5 -27.5q-11 -1 -23.5 -3.5t-23.5 4.5
q-5 8 -3.5 16.5t2.5 17.5q5 30 1 60.5t-17 58.5q-20 43 -59 74t-86 40q-42 9 -85.5 -1t-77.5 -36q-45 -33 -67 -88t-11 -110q1 -8 2 -17.5t-6 -16.5q-7 -3 -15 -2.5t-15 1.5q-65 9 -128.5 25.5t-128.5 29.5q-5 2 -10 3t-10 3v6q6 3 12.5 5.5t12.5 3.5q47 10 92.5 23t91.5 23
q10 3 20.5 7.5t13.5 15.5q2 11 -4.5 19.5t-14.5 15.5l-80 68l-80 68q-16 15 -32.5 28t-31.5 29v10q8 -2 16.5 -3.5t15.5 -4.5q60 -25 119.5 -49t119.5 -49q10 -4 27.5 -8t20.5 13q1 15 -5 29t-11 28q-24 58 -47.5 116.5t-46.5 116.5q-7 17 -15 35t-7 37q8 -4 15 -10t13 -13
q24 -33 49 -66t49.5 -66t49.5 -66l50 -66q5 -9 14.5 -14t20.5 -3q4 11 7 22t4 22q4 41 8.5 82.5t9 82.5t8.5 82t9 82l4 44t9 43v0z" />
    <glyph glyph-name="uniE621" unicode="&#xe621;" 
d="M438 879h369q7 -3 13 -7.5t7 -11.5q-1 -10 -6 -17.5t-12 -14.5q-11 -14 -25 -27t-27 -26q-8 -8 -14.5 -16.5t-14.5 -15.5q-13 -14 -26.5 -27t-25.5 -27q-11 -12 -22 -23t-23 -22q-6 -6 -11.5 -13.5t-12.5 -13.5q-13 -14 -27 -27t-26 -28q-13 -14 -26 -26.5t-26 -25.5
q-8 -11 -17.5 -20.5l-18.5 -18.5l-15.5 -15.5t-11.5 -17.5q-2 -7 5 -10t13 -2l118 24t119 23q8 2 17 0t14 -10q10 -15 14 -33t13 -34q5 -8 14.5 -11.5t18.5 -3.5q13 1 26.5 3t27.5 0q3 0 6 -2.5t6 -4.5v-12q-6 -9 -13.5 -16t-14.5 -15l-38.5 -38.5l-38.5 -38.5
q-6 -7 -13 -12t-13 -12q-25 -24 -49.5 -49t-49.5 -50q-11 -12 -24 -22.5t-24 -22.5q-22 -23 -44.5 -45t-44.5 -44q-6 -6 -12.5 -11t-14.5 -9l-10 -3q3 17 13 30t18 28q41 64 82 128.5t82 128.5q3 5 5 11t1 13q-2 9 -10.5 13t-16.5 3q-46 -7 -91.5 -14l-91 -14t-91 -14.5
t-90.5 -14.5q-17 -2 -33.5 -5t-33.5 0q-5 1 -9.5 5t-7.5 9v22q9 20 19.5 40t21.5 40q30 54 60.5 107.5t60.5 107.5q5 9 10.5 18t7.5 19q3 6 -2 12t-11 7q-10 3 -20.5 3t-16.5 10q-5 15 2 28t14 25q20 32 39 64t39 63q7 11 18 18t23 11v0z" />
    <glyph glyph-name="uniE622" unicode="&#xe622;" 
d="M344 847v0q20 8 32 -2.5t16 -18.5q26 -36 40.5 -78t33.5 -82q25 -53 55 -105t74 -92q6 -6 15.5 -10t14.5 2q18 22 33.5 46t28.5 49q9 17 26.5 27t36.5 10q15 0 28 -8.5t22 -20.5q19 -29 30.5 -62.5t24.5 -66.5q16 -34 35 -67.5t46 -60.5q16 -15 33 -29t32 -30
q8 -7 13 -17t9 -20v-1q4 -29 -7.5 -43.5t-21.5 -20.5q-17 -15 -38 -24t-42 -17q-72 -25 -147 -39t-151 -17q-124 -5 -179 -2t-68 5q-46 4 -91.5 11.5t-91.5 18.5q-37 10 -73.5 22t-69.5 33q-13 7 -30.5 21t-10.5 53v0q7 26 24 46t35 39q13 18 29.5 32.5t29.5 32.5
q31 40 54.5 85t41.5 92q16 41 28 84t26 85q7 27 18 53t24 51q5 11 13.5 20.5t18.5 15.5v0z" />
    <glyph glyph-name="uniE623" unicode="&#xe623;" 
d="M512 960q1 -2 1.5 -4t0.5 -4q1 -10 2 -21t2 -21q2 -29 3.5 -57.5t3.5 -56.5q3 -46 6.5 -92.5t10.5 -92.5q3 -22 7.5 -43.5t11.5 -42.5q8 -1 17 -1.5t18 -1.5q4 13 6.5 26t4.5 27q2 12 4 24.5t3 25.5q6 48 10.5 97.5t9.5 98.5l2 20l2 20q1 -2 1.5 -4.5t0.5 -4.5l2 -14
t2 -13q4 -46 8.5 -92t10.5 -92l6 -42t7 -42q3 -13 6 -26.5t8 -26.5q8 -3 16 -5.5t16 -6.5q3 6 5 12t3 11q5 16 8 31.5t6 31.5q6 34 9.5 68t8.5 68q1 8 2 15.5t4 15.5q1 -4 1.5 -7t1.5 -7q2 -15 3.5 -30.5t3.5 -30.5q1 -17 2.5 -34t3.5 -33v0v1v-5v-5q4 -40 7 -80.5t6 -81.5
q-23 -8 -44.5 -20t-41.5 -26q-26 -20 -49.5 -43.5t-42.5 -50.5q-20 -28 -36 -58.5t-27 -62.5q-14 -41 -22.5 -83.5t-13.5 -84.5q-1 -14 -2 -27l-2 -26q-1 -4 -1.5 -7.5t-1.5 -6.5h-1q-2 2 -2.5 5t-0.5 6q-1 8 -2 17t-1 18q-2 23 -5 46.5t-8 47.5q-7 38 -18.5 75t-28.5 72
q-19 40 -46 76t-61 65q-25 22 -53 39.5t-59 28.5q4 57 8.5 113t9.5 113l4 36t4 37q1 3 1.5 6.5t1.5 6.5v0h1q2 -7 3 -14t2 -13q3 -27 6 -53t7 -53q3 -21 6.5 -42t8.5 -41q3 -9 5.5 -18t6.5 -18q8 4 16 6.5t16 5.5q3 8 5.5 16.5t3.5 16.5q3 13 5.5 26t4.5 27q9 54 14.5 109
t11.5 110l2 20l2 20q1 3 1.5 6t1.5 6q1 -6 1.5 -13t1.5 -14q4 -47 8.5 -94t9.5 -93q2 -22 5 -44.5t7 -44.5l4 -18t5 -18q9 1 18 1.5t17 1.5q7 20 11 41.5t8 42.5q3 24 6 48.5t5 48.5q3 41 5.5 82.5t5.5 82.5q1 18 2 36.5t3 36.5q1 4 1.5 8t1.5 8v0z" />
    <glyph glyph-name="uniE624" unicode="&#xe624;" 
d="M409 898v0q14 -3 28.5 -7t25.5 -13q4 -3 5 -7.5t1 -8.5q-14 -1 -28.5 1.5t-28.5 0.5q-22 -3 -43.5 -11t-36.5 -25q-14 -16 -16 -37t2 -41q3 -20 17 -35t30 -26q25 -16 52.5 -28t51.5 -30q25 -18 45 -41.5t46 -40.5q9 -7 19 -11t21 -3q17 -2 32.5 8t21.5 25q9 29 -3 59.5
t-39 45.5q-18 10 -38 16t-39 14q-5 2 -10 5.5t-6 9.5q1 4 3.5 7t7.5 4q31 5 61.5 -2t58.5 -19q42 -22 79 -52t65 -69q27 -35 43 -77.5t24 -85.5q1 -11 3 -21t3 -20v-89q-4 -30 -11 -61t-20 -59q-20 -44 -52 -81t-74 -61q-25 -14 -53 -25t-135 -9v0q-12 4 -16.5 8.5
t-7.5 12.5q4 11 14.5 15.5t20.5 6.5q11 3 23 6t18 14q-3 13 -14 20.5t-23 12.5q-17 6 -36 6.5t-37 -2.5q-26 -4 -51 -15t-53 -10q-33 0 -64 13t-58 33q-19 13 -34 31.5t-27 39.5q-8 14 -19 44.5t-2 72.5v1q6 26 16.5 51.5t31.5 43.5q14 11 30 18.5t34 8.5q6 0 13.5 -1.5
t10.5 -7.5q0 -3 -1 -4.5t-4 -3.5q-8 -5 -17.5 -10t-15.5 -14q-11 -14 -13 -32.5t1 -36.5q4 -22 18 -39.5t33 -28.5q16 -9 32 -15.5t33 -9.5q16 -3 31.5 -4.5t31.5 -2.5q15 0 28.5 1.5t27.5 0.5q19 0 38 -2t37 -10q23 -10 43.5 -27t33.5 -40q5 -9 7 -19t7 -18q11 2 16.5 11
t8.5 18q7 21 2.5 43t-13.5 42q-14 29 -40 49.5t-57 29.5q-30 10 -60.5 10.5t-59.5 10.5q-14 5 -24.5 14.5t-19.5 20.5q-6 6 -8 14.5t1 17.5q13 3 25.5 -3t25.5 -4q12 3 19.5 12t9.5 20q5 16 1 33.5t-15 31.5q-14 18 -34.5 29.5t-41.5 19.5q-24 9 -49.5 15.5t-47.5 20.5
q-24 15 -43.5 37t-29.5 49q-9 24 -10 49.5t0 50.5q2 24 12 46t24 41q9 13 21.5 22t25.5 18q15 9 49 19t78 4v0z" />
    <glyph glyph-name="uniE625" unicode="&#xe625;" 
d="M1024 757q-225 30 -412.5 34.5t-323.5 -3t-212 -19t-76 -12.5l11.5 -39t23.5 -103.5t19 -146.5t-2 -167q66 -45 146.5 -81.5t150 -62.5t116.5 -40l47 -14h-1l47 14t117 40t150 62.5t146 81.5h-2q-9 85 -2 167t19 146.5t23.5 103.5l11.5 39h3z" />
    <glyph glyph-name="uniE626" unicode="&#xe626;" 
d="M0 205l10.5 40.5t17.5 108.5t3.5 157t-31.5 185l52 8t129.5 17t167 17t163.5 8q81 0 171 -8.5t166 -18.5t125.5 -18.5l49.5 -8.5q-27 -91 -31 -178.5t2 -156t16 -110.5l10 -42l-52.5 -8.5t-129.5 -19t-165.5 -19t-161.5 -8.5t-162 8.5t-166.5 19t-130.5 19l-53 8.5v0z
" />
    <glyph glyph-name="uniE627" unicode="&#xe627;" 
d="M1024 139q-225 -30 -412.5 -34.5t-323.5 3t-212 19t-76 12.5l12.5 39t24.5 103.5t19 146.5t-4 167q0 1 71.5 36t157 76t156.5 75l71 34h2l72 -34.5t158.5 -76t158.5 -76l72 -34.5h-2q-9 -85 -2 -167t19 -146.5t23.5 -103.5l11.5 -39h3z" />
    <glyph glyph-name="uniE628" unicode="&#xe628;" 
d="M714 755l309 -113l-28.5 -48.5t-39.5 -120.5q-12 -72 -6 -121.5l6 -49.5l-443 -154l-440 154l5.5 48t-2.5 113q-8 64 -41 121.5l-33 57.5l308 110h2q16 -42 58 -63.5t81 -29.5q21 -4 32 -4.5t30 -1.5q49 1 116.5 23t85.5 79v0z" />
    <glyph glyph-name="uniE629" unicode="&#xe629;" horiz-adv-x="668" 
d="M287 960q8 0 16 -0.5t16 -1.5l114 -18q53 -10 95.5 -41t72.5 -80t46.5 -112.5t16.5 -138.5v-616q0 -6 -4.5 -11t-11.5 -5h-526q-4 0 -7.5 1.5t-5.5 4.5l-102 134q-1 2 -2 4.5t-1 5.5v492q0 86 20.5 156.5t57.5 120.5t89 77.5t116 27.5v0v0zM385 919q-55 0 -100.5 -25
t-78 -70.5t-50.5 -109t-18 -140.5v-606h494v606q0 77 -18 140.5t-50.5 109t-78 70.5t-100.5 25v0v0zM479 231q7 0 11.5 -4.5t4.5 -11.5t-4.5 -11.5t-11.5 -4.5h-181q-7 0 -11.5 4.5t-4.5 11.5t4.5 11.5t11.5 4.5h181zM530 374q7 0 11.5 -4.5t4.5 -11.5t-4.5 -11.5
t-11.5 -4.5h-283q-7 0 -11.5 4.5t-4.5 11.5t4.5 11.5t11.5 4.5h283zM471 553q6 0 11 -5t5 -12q0 -6 -5 -11t-11 -5h-164q-7 0 -12 5t-5 11q0 7 5 12t12 5h164zM530 676q7 0 11.5 -4.5t4.5 -11.5t-4.5 -11.5t-11.5 -4.5h-283q-7 0 -11.5 4.5t-4.5 11.5t4.5 11.5t11.5 4.5h283
z" />
    <glyph glyph-name="uniE62A" unicode="&#xe62a;" 
d="M305 886v-701q0 -63 26 -94t78 -31h18v-48h-374v48h25q52 0 78.5 31t26.5 94v460q0 63 -22.5 95t-67.5 32h-37v47h15q54 0 103.5 17t93.5 50h37v0zM542 505q49 46 98 68.5t98 22.5q54 0 97 -21t76 -64q30 -39 45 -86.5t15 -102.5q0 -60 -17.5 -113t-53.5 -99
q-39 -50 -87.5 -75t-106.5 -25q-70 0 -126 30t-98 90q-38 54 -56.5 117t-18.5 136q0 77 21 148.5t64 136.5t100 111t128 74q41 15 84 23t87 8v-46q-47 -3 -89 -13.5t-78 -30t-65.5 -47t-53.5 -62.5q-24 -37 -39.5 -82t-23.5 -98v0zM533 416q0 -13 -0.5 -26t-0.5 -27
q0 -50 9 -97.5t26 -90.5q23 -57 56.5 -85.5t77.5 -28.5q39 0 67.5 19.5t47.5 58.5q15 31 22.5 67t7.5 79q0 46 -7 85t-21 71q-19 45 -48.5 67t-69.5 22q-49 0 -90.5 -28.5t-76.5 -85.5v0z" />
    <glyph glyph-name="uniE62B" unicode="&#xe62b;" 
d="M308 885v-701q0 -63 26 -94.5t78 -31.5h17v-47h-373v47h24q53 0 79.5 31.5t26.5 94.5v460q0 63 -22.5 95t-67.5 32h-37v47h14q55 0 104.5 17t93.5 50h37zM720 11h-127v13q0 61 19 137t57 167q29 69 56.5 130t54 113.5t52 97.5t49.5 81l9 14h-297q-33 0 -57.5 -7
t-40.5 -20q-17 -14 -29.5 -36.5t-21.5 -53.5h-49l54 238h31q15 -7 39.5 -11t59.5 -4h389v-67q-10 -15 -23.5 -39t-30.5 -57q-31 -61 -60 -132.5t-55 -153.5q-19 -60 -34 -116t-25 -107t-15 -98t-5 -89v0z" />
    <glyph glyph-name="uniE62C" unicode="&#xe62c;" 
d="M303 885v-701q0 -63 26 -94.5t78 -31.5h18v-47h-374v47h25q52 0 78.5 31.5t26.5 94.5v460q0 63 -22.5 95t-67.5 32h-37v47h14q55 0 104.5 17t93.5 50h37v0zM584 454l-19 13q-43 29 -71 52t-42 41q-17 22 -25.5 47.5t-8.5 55.5q0 50 21 91t64 72q40 30 86 44.5t99 14.5
q49 0 93 -13t83 -38q43 -29 65 -67t22 -85q0 -57 -41 -103.5t-123 -81.5q93 -45 139.5 -106t46.5 -140q0 -57 -22 -102t-67 -78q-39 -30 -89 -45t-110 -15q-57 0 -105 14t-89 42q-46 31 -69.5 73t-23.5 95q0 52 25 95t74 77q14 9 35.5 20.5t51.5 26.5v0zM635 433
q-67 -30 -101 -77.5t-34 -112.5q0 -42 14 -75.5t41 -58.5q27 -26 62.5 -38.5t77.5 -12.5q39 0 71.5 10t58.5 30q27 21 40.5 49t13.5 64q0 54 -37 98t-110 78l-97 46v0zM736 520q59 26 88.5 64.5t29.5 90.5q0 35 -12.5 63.5t-37.5 49.5t-56 32t-68 11q-31 0 -57.5 -8.5
t-48.5 -24.5q-25 -17 -37.5 -41t-12.5 -53q0 -36 17.5 -65t51.5 -51q7 -5 37 -19t83 -39l23 -10v0z" />
    <glyph glyph-name="uniE62D" unicode="&#xe62d;" 
d="M308 885v-701q0 -63 26 -94.5t78 -31.5h17v-47h-373v47h24q53 0 79.5 31.5t26.5 94.5v460q0 63 -22.5 95t-67.5 32h-37v47h14q55 0 104.5 17t93.5 50h37zM833 388q-49 -46 -97.5 -69t-98.5 -23q-53 0 -96 21.5t-76 64.5q-30 39 -45 86t-15 102q0 60 17.5 113t52.5 100
q39 51 87 76.5t106 25.5q71 0 127 -30.5t98 -91.5q38 -54 56.5 -117.5t18.5 -137.5q0 -52 -8.5 -100t-25.5 -92t-43 -84t-61 -76q-34 -36 -73 -63t-82.5 -45t-91 -27.5t-99.5 -9.5v46q32 1 57.5 4.5t44.5 9.5q53 16 95 44t72.5 67.5t50.5 91t29 114.5v0zM842 476q1 14 1 27
v26q0 51 -8.5 98.5t-26.5 89.5q-24 57 -57.5 85.5t-77.5 28.5q-39 0 -67 -19.5t-47 -58.5q-14 -31 -21.5 -67t-7.5 -79q0 -46 7 -85t21 -71q19 -44 48.5 -66t69.5 -22q48 0 89.5 28t76.5 85z" />
    <glyph glyph-name="uniE62E" unicode="&#xe62e;" 
d="M544 237l-58 -209h-486v45q18 20 56.5 62.5t98.5 105.5q36 38 72 78.5t71 83.5q18 20 31.5 38.5t23.5 33.5q21 32 31.5 65t10.5 67q0 33 -10 62.5t-29 54.5t-44 37.5t-56 12.5q-66 0 -118 -47t-89 -141l-44 17q23 66 51.5 116t63 83t76 49.5t88.5 16.5t87 -17t73 -51
t49.5 -75.5t16.5 -91.5q0 -63 -34 -125t-103 -123l-95 -83q-46 -41 -83.5 -78.5t-67.5 -73.5q-2 -2 -6.5 -7t-10.5 -13h253q30 0 52 6t37 19q13 11 25.5 31.5t24.5 50.5h42v0zM523 423q0 77 14.5 148t42.5 136q36 80 84.5 120.5t110.5 40.5t109.5 -34.5t82.5 -102.5
q28 -57 42.5 -122.5t14.5 -140.5q0 -78 -14.5 -148.5t-42.5 -133.5q-35 -79 -84 -118.5t-111 -39.5q-60 0 -107 34t-82 102q-30 58 -45 122.5t-15 136.5v0zM628 469q0 -51 3.5 -96t10 -84.5t16.5 -73.5t24 -63q18 -39 42 -59t54 -20q35 0 61.5 21t44 62t26.5 103t9 145
q0 73 -5.5 134.5t-16.5 111.5q-20 83 -52.5 124.5t-79.5 41.5q-34 0 -60 -20t-43 -60t-25.5 -100t-8.5 -140v-27v0z" />
    <glyph glyph-name="uniE900" unicode="&#xe900;" horiz-adv-x="1841" 
d="M291 960v-821q0 -73 31 -110t93 -37h22v-56h-437v56h27q60 0 90 37t30 110v539q0 74 -25.5 111.5t-77.5 37.5h-44v54h16q64 0 122 20t109 59h44v0zM422 417q0 47 5 92t15 88.5t24.5 85t34.5 80.5q25 50 54 86.5t62.5 61t72 37t80.5 12.5q85 0 151 -42t113 -125
q20 -35 35 -72t24.5 -77t14.5 -83t5 -89q0 -47 -5 -92.5t-14.5 -88t-24.5 -83.5t-35 -79q-24 -48 -53 -84.5t-62.5 -60.5t-72 -36t-81.5 -12q-82 0 -147 41.5t-113 123.5q-21 36 -36.5 73.5t-26 76.5t-15.5 80.5t-5 85.5v0zM567 474q0 -62 4.5 -117.5t14 -103.5t23 -89.5
t32.5 -75.5q26 -49 59 -73t74 -24q48 0 84.5 25.5t61 75.5t36.5 126t12 177q0 88 -7.5 163t-23.5 137q-26 100 -71.5 150.5t-109.5 50.5q-47 0 -82.5 -24t-59.5 -73t-35.5 -122t-11.5 -170v-33v0zM1150 417q0 47 5 92t14.5 88.5t24.5 85t35 80.5q25 50 54 86.5t62.5 61
t71.5 37t81 12.5q84 0 150 -42t114 -125q19 -35 34 -72t25 -77t15 -83t5 -89q0 -47 -5 -92.5t-15 -88t-25 -83.5t-34 -79q-24 -48 -53 -84.5t-63 -60.5t-72 -36t-81 -12q-82 0 -147 41.5t-114 123.5q-20 36 -35.5 73.5t-26 76.5t-15.5 80.5t-5 85.5v0zM1294 474
q0 -62 5 -117.5t14 -103.5t23 -89.5t33 -75.5q25 -49 58.5 -73t73.5 -24q49 0 85.5 25.5t61 75.5t36.5 126t12 177q0 88 -7.5 163t-23.5 137q-27 100 -72 150.5t-109 50.5q-47 0 -82.5 -24t-59.5 -73t-36 -122t-12 -170v-33v0z" />
    <glyph glyph-name="uniE901" unicode="&#xe901;" horiz-adv-x="5120" 
d="M291 960v-821q0 -73 31 -110t93 -37h22v-56h-437v56h27q60 0 90 37t30 110v539q0 74 -25.5 111.5t-77.5 37.5h-44v54h16q64 0 122 20t109 59h44v0zM630 417q0 47 5 92t15 88.5t25 85t34 80.5q25 50 54 86.5t62.5 61t72 37t80.5 12.5q85 0 151 -42t113 -125q20 -35 35 -72
t25 -77t14.5 -83t4.5 -89q0 -47 -4.5 -92.5t-14.5 -88t-25 -83.5t-35 -79q-24 -48 -53 -84.5t-62.5 -60.5t-72 -36t-81.5 -12q-82 0 -147 41.5t-113 123.5q-21 36 -36.5 73.5t-25.5 76.5t-15.5 80.5t-5.5 85.5v0zM775 474q0 -62 4.5 -117.5t14 -103.5t23.5 -89.5t32 -75.5
q26 -49 59 -73t74 -24q49 0 85.5 25.5t60.5 75.5t36.5 126t12.5 177q0 88 -8 163t-23 137q-27 100 -72.5 150.5t-108.5 50.5q-48 0 -83.5 -24t-59 -73t-35.5 -122t-12 -170v-33v0zM1358 417q0 47 5 92t15 88.5t24.5 85t34.5 80.5q25 50 54 86.5t62.5 61t71.5 37t81 12.5
q85 0 150.5 -42t113.5 -125q20 -35 34.5 -72t24.5 -77t15 -83t5 -89q0 -47 -5 -92.5t-15 -88t-24.5 -83.5t-34.5 -79q-24 -48 -53 -84.5t-62.5 -60.5t-72 -36t-81.5 -12q-82 0 -147 41.5t-113 123.5q-21 36 -36.5 73.5t-26 76.5t-15.5 80.5t-5 85.5v0zM1503 474
q0 -62 4.5 -117.5t13.5 -103.5t23 -89.5t33 -75.5q26 -49 59 -73t74 -24q48 0 84.5 25.5t61 75.5t36.5 126t12 177q0 88 -7.5 163t-23.5 137q-26 100 -71.5 150.5t-109.5 50.5q-47 0 -82.5 -24t-59.5 -73t-35.5 -122t-11.5 -170v-33v0zM2087 417q0 47 5 92t15 88.5t25 85
t35 80.5q24 50 53 86.5t62.5 61t72 37t80.5 12.5q85 0 151 -42t113 -125q20 -35 35 -72t25 -77t14.5 -83t4.5 -89q0 -47 -4.5 -92.5t-14.5 -88t-25 -83.5t-35 -79q-24 -48 -53 -84.5t-62.5 -60.5t-72 -36t-81.5 -12q-82 0 -147 41.5t-113 123.5q-21 36 -36.5 73.5
t-25.5 76.5t-15.5 80.5t-5.5 85.5v0zM2232 474q0 -62 4.5 -117.5t14 -103.5t23.5 -89.5t32 -75.5q26 -49 59 -73t74 -24q49 0 85.5 25.5t60.5 75.5t36.5 126t12.5 177q0 88 -8 163t-23 137q-27 100 -72.5 150.5t-108.5 50.5q-48 0 -83.5 -24t-59 -73t-35.5 -122t-12 -170
v-33v0zM481 -64v28q52 5 79 24q26 19 26 51q0 21 -6 31q-7 10 -23 11l-10 1q-20 1 -31 12q-12 11 -12 30q0 21 14 34t35 13q33 0 55 -32q22 -31 22 -77q0 -59 -39 -92t-110 -34v0zM2968 417q0 47 5 92t15 88.5t25 85t35 80.5q24 50 53 86.5t63 61t72 37t81 12.5
q84 0 150 -42t113 -125q20 -35 35 -72t25 -77t15 -83t5 -89q0 -47 -5 -92.5t-15 -88t-25 -83.5t-35 -79q-24 -48 -53 -84.5t-62.5 -60.5t-72 -36t-81.5 -12q-82 0 -147 41.5t-113 123.5q-21 36 -36.5 73.5t-25.5 76.5t-15.5 80.5t-5.5 85.5v0zM3113 474q0 -62 4.5 -117.5
t14 -103.5t23.5 -89.5t32 -75.5q26 -49 59 -73t74 -24q49 0 85.5 25.5t60.5 75.5t36.5 126t12.5 177q0 88 -8 163t-23 137q-27 100 -72 150.5t-109 50.5q-48 0 -83.5 -24t-59 -73t-35.5 -122t-12 -170v-33v0zM3696 417q0 47 5 92t15 88.5t24.5 85t34.5 80.5q25 50 54 86.5
t62.5 61t72 37t80.5 12.5q85 0 151 -42t113 -125q20 -35 35 -72t24.5 -77t14.5 -83t5 -89q0 -47 -5 -92.5t-14.5 -88t-24.5 -83.5t-35 -79q-24 -48 -53 -84.5t-62.5 -60.5t-72 -36t-81.5 -12q-82 0 -147 41.5t-113 123.5q-21 36 -36.5 73.5t-26 76.5t-15.5 80.5t-5 85.5v0z
M3841 474q0 -62 4.5 -117.5t14 -103.5t23 -89.5t32.5 -75.5q26 -49 59 -73t74 -24q48 0 84.5 25.5t61 75.5t37 126t12.5 177q0 88 -8 163t-23 137q-27 100 -72.5 150.5t-109.5 50.5q-47 0 -82.5 -24t-59 -73t-35.5 -122t-12 -170v-33v0zM4425 417q0 47 5 92t15 88.5t25 85
t35 80.5q24 50 53 86.5t63 61t72 37t81 12.5q84 0 150 -42t113 -125q20 -35 35 -72t25 -77t15 -83t5 -89q0 -47 -5 -92.5t-15 -88t-25 -83.5t-35 -79q-24 -48 -53 -84.5t-62.5 -60.5t-72 -36t-81.5 -12q-82 0 -147 41.5t-113 123.5q-21 36 -36.5 73.5t-25.5 76.5t-15.5 80.5
t-5.5 85.5v0zM4570 474q0 -62 4.5 -117.5t14 -103.5t23.5 -89.5t32 -75.5q26 -49 59.5 -73t73.5 -24q49 0 85.5 25.5t60.5 75.5t36.5 126t12.5 177q0 88 -8 163t-23 137q-27 100 -72 150.5t-109 50.5q-48 0 -83.5 -24t-59 -73t-35.5 -122t-12 -170v-33v0zM2819 -64v28
q53 5 79 24t26 51q0 21 -6 31q-7 10 -23 11l-10 1q-19 1 -31 12q-11 11 -11 30q0 21 13 34q14 13 35 13q33 0 55 -32q22 -31 22 -77q0 -59 -39 -92t-110 -34v0z" />
    <glyph glyph-name="uniE902" unicode="&#xe902;" 
d="M545 960v-362q0 -32 13.5 -48.5t40.5 -16.5h10v-25h-193v25h12q27 0 40 16.5t13 48.5v238q0 32 -11.5 48.5t-33.5 16.5h-20v24h7q28 0 53.5 9t48.5 26h20v0zM667 48l-33 -112h-277v24q10 11 32 33.5t56 57.5q21 20 41.5 41.5t40.5 44.5q10 11 17.5 21l13.5 18
q12 17 18 35t6 36t-5.5 33.5t-16.5 29.5q-11 13 -25.5 20t-31.5 7q-38 0 -67.5 -25.5t-50.5 -75.5l-25 9q25 71 65 106.5t94 35.5q27 0 49.5 -9t41.5 -27t28 -40.5t9 -49.5q0 -34 -19.5 -67.5t-58.5 -65.5l-54 -45q-26 -22 -47.5 -42t-38.5 -39q-1 -1 -3.5 -4t-5.5 -7h144
q17 0 29.5 3.5t20.5 9.5t15 17t14 27h24v0zM892 469v-44h-760v44h760z" />
    <glyph glyph-name="uniE903" unicode="&#xe903;" 
d="M687 552q-24 -16 -57 -41q-32 -26 -69 -62q69 -69 126 -103q58 -34 102 -34q31 0 58 11q26 11 45 31q20 19 31 45t11 54q0 29 -11 53t-31 41t-47 27q-27 9 -59 9q-47 0 -99 -31v0zM240 312q48 0 105 33t121 99q-66 70 -125 104q-59 35 -110 35q-31 0 -57 -10
q-26 -11 -45 -29t-29 -42q-11 -24 -11 -51q0 -29 12 -54q11 -25 31 -44q21 -19 49 -30q27 -11 59 -11v0zM229 658q139 0 287 -156q43 42 84 74t72 49t65 25q33 8 66 8q48 0 88 -15q41 -16 70 -44q30 -27 46 -66q17 -39 17 -84q0 -47 -18 -85q-18 -39 -51 -67
q-32 -28 -76 -44q-45 -15 -97 -15q-61 0 -129 37q-69 38 -145 113q-73 -75 -144 -113q-72 -37 -141 -37q-47 0 -88 16q-40 16 -70 44q-31 28 -48 66t-17 83t18 84q18 38 49 67q31 28 72 44q42 16 90 16v0z" />
    <glyph glyph-name="uniE904" unicode="&#xe904;" 
d="M429 770q24 35 42.5 72.5t40.5 73.5q21 -34 38.5 -71t40.5 -70q25 -37 53 -71t59 -65t65 -59t71 -52q33 -24 70 -41.5t71 -38.5q-35 -21 -71.5 -38.5t-70.5 -41.5q-37 -25 -71 -53.5t-65.5 -60t-60 -66t-53.5 -71.5q-22 -33 -39 -68.5t-37 -68.5q-21 34 -39 71t-41 70
q-24 37 -52.5 71t-59.5 65t-65 59t-70 52q-33 24 -70 41.5t-71 38.5q36 22 73.5 40t72.5 43q35 24 67.5 51t62.5 57.5t57.5 63t51.5 67.5v0zM236 448q40 -28 78 -59.5t72.5 -66t66 -72t59.5 -78.5q28 40 59.5 78t66 72.5t72 66t78.5 59.5q-41 28 -78.5 59.5t-72 66t-66 72.5
t-59.5 78q-28 -40 -59.5 -78t-66.5 -72.5t-72.5 -66t-77.5 -59.5v0z" />
    <glyph glyph-name="uniE905" unicode="&#xe905;" 
d="M473 957q49 3 99 -2.5t97 -21.5q44 -14 85.5 -36.5t77.5 -52t66.5 -65.5t53.5 -77q33 -56 50 -118.5t18 -127.5q1 -59 -12 -117.5t-38 -111.5q-19 -40 -44.5 -76t-57 -66.5t-67.5 -56t-76 -43.5q-53 -25 -111 -37t-116 -10q-63 2 -124 19.5t-116 48.5q-42 24 -78.5 56.5
t-66.5 70.5t-52.5 81.5t-36.5 90.5q-19 65 -20 134.5t16 136.5q10 40 27 77.5t39.5 72.5t50 65.5t59.5 56.5q59 47 130.5 75t146.5 34v0zM254 790q-45 -33 -80.5 -76t-58.5 -93q-22 -47 -32 -98.5t-6 -102.5q3 -53 19.5 -104.5t45.5 -95.5q29 -46 68.5 -84t86.5 -65
q57 -35 123 -52.5t133 -17.5q-15 4 -29.5 9.5t-28.5 12.5q-59 26 -110 66.5t-89 92.5q-32 45 -53 96.5t-29 105.5q-8 62 0.5 124t34.5 119q30 66 80.5 121t113.5 92q26 15 54 27.5t57 21.5q-40 0 -80 -6.5t-78 -19t-74 -31t-68 -42.5v0z" />
    <glyph glyph-name="uniE906" unicode="&#xe906;" 
d="M473 956q44 4 88 -0.5t86.5 -16t82.5 -30.5t76 -44q39 -28 72.5 -62.5t60 -75t45 -85t28.5 -91.5q14 -69 9 -139.5t-29 -136.5q-18 -50 -46.5 -96t-65.5 -85q-40 -41 -88 -72.5t-101 -51.5q-70 -26 -145 -31t-147 12q-46 10 -89.5 29t-82.5 45q-47 32 -86.5 73.5
t-67.5 90.5q-29 48 -46.5 102t-22.5 110q-6 63 4 126.5t35 121.5q23 54 58.5 101.5t79.5 85.5q31 26 65.5 47t71.5 36.5t76 25t79 11.5v0zM393 886q-6 -20 -15.5 -39t-24.5 -34q-17 -18 -39 -30t-46 -17q-19 -3 -38.5 -2t-38.5 6q4 -17 6.5 -34.5t-0.5 -34.5
q-4 -32 -20.5 -60t-42.5 -47q-13 -11 -29 -17.5t-32 -11.5q22 -20 35.5 -48t15.5 -59q1 -24 -4.5 -47t-17.5 -44q-6 -10 -14 -19l-16 -18q6 -2 12 -3.5t12 -4.5q24 -9 44 -25.5t33 -38.5q15 -24 20.5 -52.5t0.5 -56.5q-1 -6 -2.5 -11.5t-2.5 -11.5q11 2 22 4.5t22 2.5
q27 1 54 -7.5t49 -25.5t37 -41t22 -51q18 21 43 34t52 17q23 4 46 0t44 -13q15 -7 27.5 -17t23.5 -22q4 12 7.5 24t10.5 23q17 32 49 53.5t69 25.5q17 3 34.5 0.5t34.5 -7.5q-7 23 -8 47.5t7 47.5q10 35 35.5 62t59.5 40q6 2 12 3.5t11 4.5q-15 13 -26.5 30t-18.5 36
q-11 33 -7.5 68.5t21.5 64.5q6 11 14 19.5t16 17.5q-4 2 -8.5 3t-9.5 2q-36 11 -63 39t-38 64q-5 15 -6 31.5t1 32.5q1 8 3 16t3 16q-11 -2 -21.5 -4.5t-21.5 -2.5q-27 -1 -53 7t-48 24q-16 11 -28 26.5t-21 33.5q-4 8 -6.5 16t-5.5 16q-16 -17 -37.5 -29.5t-45.5 -17.5
q-31 -7 -63.5 -0.5t-59.5 24.5q-8 5 -14.5 11t-13.5 12l-1 -0.5l-1 -0.5v0zM471 758q37 6 73.5 1t70.5 -17q42 -15 78.5 -41t62.5 -62q22 -28 36.5 -60.5t21.5 -66.5q3 -13 4.5 -26.5t2.5 -27.5q1 -57 -19 -111.5t-57 -98.5q-20 -24 -44.5 -42.5t-52.5 -32.5
q-41 -20 -86.5 -28.5t-91.5 -1.5q-47 6 -91 26.5t-79 52.5q-42 39 -67.5 91.5t-31.5 108.5q-5 55 9.5 108.5t45.5 97.5q37 54 94 88t121 42v0zM477 780q-58 -4 -111.5 -30t-93.5 -68q-42 -43 -66.5 -98.5t-25.5 -115.5q-1 -9 -1 -18t1 -18q0 -22 4.5 -45t11.5 -44
q16 -48 47 -89t71 -71q42 -31 92.5 -48t103.5 -15q20 0 40 1.5t40 6.5q63 15 116.5 55t87.5 95q18 29 29 61t16 65q4 35 2 70t-12 69q-10 35 -27.5 67t-41.5 59l-22 22t-23 21q-24 19 -51.5 33t-56.5 23q-31 10 -64 12.5t-66 -0.5v0z" />
    <glyph glyph-name="uniE907" unicode="&#xe907;" horiz-adv-x="872" 
d="M651 880q11 1 21 4.5t21 5.5q0 -4 0.5 -8.5t1.5 -8.5q0 -17 2.5 -34t3.5 -34q4 -26 8.5 -52t10.5 -52l4 -20t5 -20t5 -21t6 -21q3 -12 7 -24l8 -24q3 -7 5 -14t5 -14q3 -13 8.5 -24.5t10.5 -24.5q3 -6 6 -12.5t5 -12.5q4 -10 9 -18.5t9 -17.5q10 -18 16.5 -29t13.5 -20
q4 -7 8.5 -13.5t10.5 -12.5q2 -3 5.5 -6.5t3.5 -8.5q-6 -2 -12 -5l-12 -6q-18 -6 -36 -13.5t-36 -15.5q-24 -11 -47 -23.5t-46 -26.5q-33 -20 -65 -43.5t-61 -50.5q-19 -17 -36.5 -35.5t-33.5 -37.5q-6 -8 -11.5 -15.5t-9.5 -15.5q-5 -8 -11 -16t-11 -16q-3 -4 -5.5 -8.5
t-5.5 -8.5q-3 4 -6 8.5t-5 9.5q-21 34 -46 65t-54 59q-34 32 -72 60t-78 52q-21 12 -42 23t-43 22q-5 3 -11 5t-12 5q-15 8 -31 13.5t-31 12.5q4 8 9 15l10 14q11 15 20.5 30.5t18.5 31.5q22 42 39.5 86t30.5 90q14 46 23 93t16 94q2 18 3.5 36t2.5 36q0 5 0.5 10t1.5 10
q5 0 10 -1l10 -2q17 -5 34 -8.5t34 -6.5q27 -4 54.5 -8t55.5 -5q18 -1 35.5 -2t35.5 -1q17 0 33.5 1t33.5 2q16 2 31.5 3.5t31.5 4.5q13 2 17.5 2.5t5.5 0.5q14 3 27 6t26 7v0zM551 813q-16 -6 -33 -10t-34 -7q-13 -2 -26.5 -3t-26.5 -1q-26 0 -52 4t-50 14q-1 -3 -0.5 -6
t0.5 -6q2 -13 2.5 -25.5t-0.5 -24.5q-2 -28 -9 -54.5t-17 -52.5q-2 -6 -5 -12.5t-4 -13.5q-24 -55 -56 -105t-69 -97q-3 -5 -7 -9t-7 -9q6 0 11 1.5t10 2.5q27 7 54.5 12t55.5 8q19 2 38.5 2h38.5q21 0 42.5 -3t42.5 -8q1 -2 0.5 -4t-0.5 -4q-7 -23 -11.5 -46t-6.5 -46
q-4 -28 -4 -56.5t1 -57.5t4 -58t9 -57q2 10 3.5 20t4.5 20q5 25 13.5 50t18.5 49q17 40 37.5 79t42.5 76q24 40 50.5 79t54.5 76q3 3 2.5 6.5t-0.5 6.5q-2 0 -4 -0.5t-5 -0.5q-12 -3 -24 -5l-24 -4q-8 0 -16.5 -1.5t-17.5 -1.5q1 -1 2 -1t3 -1q-5 1 -10 1t-10 -1
q-13 -2 -26 -1.5t-26 0.5t-25.5 -0.5t-25.5 1.5q-11 0 -21.5 2.5t-20.5 3.5q-1 10 1 20.5t4 20.5q13 63 45 120t76 104q3 4 7.5 7t6.5 7q-1 1 -3 0.5t-4 -0.5v0z" />
    <glyph glyph-name="uniE908" unicode="&#xe908;" 
d="M512 960q106 0 199.5 -40t163 -109.5t109.5 -163t40 -199.5t-40 -199.5t-109.5 -163t-163 -109.5t-199.5 -40t-199.5 40t-163 109.5t-109.5 163t-40 199.5t40 199.5t109.5 163t163 109.5t199.5 40zM511 909v0l-2 -10l-2 -10q-2 -22 -3.5 -44.5t-2.5 -44.5
q-3 -51 -6 -101.5t-8 -101.5q-2 -29 -5.5 -59t-7.5 -59q-4 -26 -9.5 -52.5t-13.5 -51.5q-11 -1 -21.5 -2t-21.5 -2q-4 11 -6.5 22.5t-4.5 22.5q-5 27 -8.5 54.5t-6.5 54.5q-6 57 -11.5 114.5t-10.5 114.5q-1 9 -2 17.5t-2 16.5q-1 -4 -1.5 -7.5t-1.5 -7.5q-2 -12 -3 -24.5
t-2 -24.5q-7 -67 -14 -134.5t-18 -134.5q-2 -16 -5 -32.5t-7 -32.5q-2 -10 -5 -20.5t-6 -20.5q-10 -3 -20 -6.5t-20 -7.5q-4 11 -7.5 22t-6.5 22q-6 25 -10.5 50.5t-8.5 51.5q-4 33 -8 65t-8 65q-1 8 -2.5 16.5t-3.5 16.5h-1l-2 -8t-1 -8q-3 -23 -5.5 -45t-4.5 -45
q-7 -69 -12.5 -138t-10.5 -138q38 -15 73 -36t65 -48q28 -24 57 -50.5t57 -55.5t53 -59.5t44 -61.5l0.5 -1t1.5 0q21 43 46.5 75t60.5 65q31 29 62.5 55.5t64.5 49.5q24 18 55.5 37t59.5 30q-4 49 -8 99t-8 99q0 3 -0.5 6t-0.5 6v-1q-1 20 -3 40.5t-4 41.5l-4 38t-5 37
q0 5 -1 9l-2 8q-3 -9 -4.5 -19t-2.5 -19q-6 -42 -11 -83.5t-12 -83.5q-3 -19 -7 -38t-9 -38q-2 -7 -4.5 -14.5t-5.5 -14.5q-10 4 -19.5 7.5t-20.5 6.5q-5 16 -9 32.5t-8 33.5q-4 26 -8 51.5t-7 51.5q-8 56 -13.5 112.5t-11.5 112.5q-1 8 -1.5 16.5t-2.5 17.5q0 2 -0.5 5
t-1.5 6q-2 -13 -3 -25t-2 -25q-6 -60 -11.5 -120t-12.5 -120q-2 -16 -4 -31.5t-5 -30.5q-3 -16 -6 -32.5t-8 -32.5q-11 2 -22 2.5t-21 1.5q-8 26 -13.5 52.5t-9.5 52.5q-8 57 -13 114t-8 114q-3 35 -5 69.5t-4 69.5l-2 26t-3 26q0 3 -0.5 5.5t-1.5 4.5v0v0v0z" />
    <glyph glyph-name="uniE909" unicode="&#xe909;" 
d="M512 960q106 0 199.5 -40t163 -109.5t109.5 -163t40 -199.5t-40 -199.5t-109.5 -163t-163 -109.5t-199.5 -40t-199.5 40t-163 109.5t-109.5 163t-40 199.5t40 199.5t109.5 163t163 109.5t199.5 40v0zM519 515q-58 -3 -109 -11t-98.5 -22.5t-94.5 -36t-98 -51.5
q46 -36 94.5 -76.5t91.5 -79.5q55 -49 89.5 -89.5t66.5 -79.5q13 -16 24.5 -32t28.5 -33q39 57 83.5 110.5t94.5 102t103.5 93t109.5 85.5q-67 39 -139.5 67.5t-149.5 43.5q-40 6 -40 5.5t-57 3.5v0zM493 709q-15 -2 -29.5 -3.5t-28.5 -4.5q-39 -10 -74.5 -28t-65 -44
t-52 -59t-35.5 -71q38 13 76.5 25.5t78 22t79 14.5t80.5 3q77 2 149.5 -20t143.5 -45q-13 39 -36 73t-54 60.5t-68.5 44.5t-77.5 26q-36 6 -36 5.5t-50 0.5v0z" />
    <glyph glyph-name="uniE90A" unicode="&#xe90a;" 
d="M512 960q106 0 199.5 -40t163 -109.5t109.5 -163t40 -199.5t-40 -199.5t-109.5 -163t-163 -109.5t-199.5 -40t-199 40t-162.5 109.5t-110 163t-40.5 199.5t40.5 199.5t110 163t162.5 109.5t199 40v0zM510 887q-13 -3 -22 -13t-18 -19q-31 -35 -66 -65.5t-73 -58t-77 -53
t-79 -48.5q-23 -10 -26 -34.5t6 -43.5q51 -13 103.5 -11t103.5 -12q23 -14 25 -40.5t-4 -48.5q-16 -22 -40.5 -36.5t-34.5 -40.5q12 -24 28 -47t30 -46q-6 -22 -9.5 -46.5t18.5 -40.5q-1 8 -3 23t1 19q2 4 8 7.5t10 0.5q3 -8 16 -39t22 -55q-5 2 -12.5 4t-15.5 5t-16.5 7.5
t-14.5 6.5q10 -26 30 -43t42 -31q-1 -9 -3 -23t-3 -23q-23 2 -40 13.5t14 44.5q-7 -7 -18.5 -17t-16.5 -18q-18 -25 9.5 -38t42.5 -25q12 12 28 22.5t15 30.5q2 53 19 103.5t22 103.5q4 -53 18 -107.5t22 -99.5q3 -20 16.5 -30.5t25.5 -21.5q18 9 43 23t22 21
q-6 18 -20 28.5t-26 24.5q27 -32 13.5 -45t-36.5 -13q-2 0 -4.5 7.5t-4.5 16.5q-1 6 -1.5 12t-2.5 12q26 10 45.5 28t28.5 44q-11 -4 -29.5 -11t-29.5 -12q14 24 20.5 51.5t30.5 47.5q9 6 7.5 -27.5t3.5 -24.5q16 29 13.5 46t-10.5 40q14 23 29.5 45.5t27.5 46.5
q-12 24 -35 39t-39 36q-7 23 -5 49t24 41q51 14 104.5 11.5t104.5 10.5q5 2 7 6t3 10q2 13 3 27.5t-9 20.5q-67 41 -133.5 83t-124.5 96q-26 21 -47.5 46t-47.5 46l-8 1v0zM529 334q17 -22 34 -43.5t35 -42.5q-6 -18 -12.5 -36.5t-12.5 -37.5q-16 38 -27.5 78t-16.5 82z
M492 334q-6 -41 -16.5 -81t-26.5 -78q-7 17 -13.5 35t-13.5 36l26.5 33t43.5 55v0zM560 402q24 -7 47.5 -17t45.5 -23q-10 -17 -20 -33.5t-21 -33.5q-16 25 -29 52t-23 55v0zM461 402q-10 -28 -24 -53.5t-30 -50.5q-10 17 -19.5 32t-19.5 32q22 13 45.5 23t47.5 17v0z" />
    <glyph glyph-name="uniE90B" unicode="&#xe90b;" 
d="M512 960q106 0 199.5 -40t163 -109.5t109.5 -163t40 -199.5t-40 -199.5t-109.5 -163t-163 -109.5t-199.5 -40v0q-106 0 -199.5 40t-163 109.5t-109.5 163t-40 199.5t40 199.5t109.5 163t163 109.5t199.5 40zM512 861q-86 0 -161 -32.5t-131 -88.5t-88.5 -131t-32.5 -161
t32.5 -161t88.5 -131t131 -88.5t161 -32.5t161 32.5t131 88.5t88.5 131t32.5 161t-32.5 161t-88.5 131t-131 88.5t-161 32.5v0zM519 801l65 -5l-2 -9q-75 -9 -151 -25t-140 -57q-17 -10 -4.5 -22t24.5 -11q34 -6 73.5 -14.5t51.5 -48.5q-11 -35 -39.5 -54.5t-64.5 -20.5
q-6 -40 7 -78.5t0 -77.5q-12 -51 17.5 -94t76.5 -58q5 -42 43.5 -48.5t71.5 -2.5q12 4 21.5 -1.5t15.5 -16.5q-51 -8 -94 -41.5t-98 -17.5q-64 18 -111.5 66t-86.5 98q-42 61 -59 136.5t6 147.5q9 24 19 51.5t36 37.5q30 -9 48 -36t46 -39q15 9 26.5 22.5t6.5 32.5
q-28 14 -63 24.5t-44 44.5q15 33 43.5 60.5t61.5 44.5q81 10 81 9t116 3v0zM742 293q18 -2 29.5 -10t20.5 -23q21 -35 -8 -68t-64 -36q-45 9 -46.5 61t30.5 73l16 3h22zM557 377q31 -5 47 -20.5t5 -48.5q-6 -33 -47.5 -50t-56.5 24q-9 25 4 51t34 40zM773 607
q27 -5 27.5 -4.5t17.5 -10.5q24 -30 45 -61.5t30 -72.5q4 -18 0 -35t-7 -15q-23 -23 -41.5 -43.5t-49.5 -33.5q-53 -13 -101.5 28.5t-39.5 96.5q13 27 28 53.5t26 55.5q10 23 26 30t39 12v0zM518 490q9 0 15.5 -6.5t6.5 -15.5t-6.5 -15.5t-15.5 -6.5q-10 0 -16.5 6.5
t-6.5 15.5t6.5 15.5t16.5 6.5v0zM588 554q7 0 12 -5t5 -12q0 -6 -5 -11t-12 -5t-11.5 5t-4.5 11q0 7 4.5 12t11.5 5zM644 711q33 -7 52 -25.5t10 -54.5q-34 -23 -66 9.5t-11 66.5z" />
    <glyph glyph-name="uniE90C" unicode="&#xe90c;" 
d="M311 541q25 44 50.5 87.5t50.5 87.5t50.5 87.5t50.5 87.5q25 -44 50 -87.5l50 -87t50.5 -87t50.5 -87.5q-18 15 -38 27t-42 21q-49 21 -104 24t-107 -12q-31 -10 -59.5 -25t-52.5 -36zM499 578q2 -10 3 -20.5t3 -21.5q1 0 2.5 -0.5t2.5 -0.5v21v21q-3 1 -5.5 1h-5.5v0z
M515 576q1 -10 1 -19.5v-18.5q3 -1 5 -1h4q0 2 -0.5 4t-0.5 3q3 1 5 1h5q0 2 -0.5 4.5t-0.5 5.5l-6 2l-6 2q0 1 0.5 2.5t1.5 3.5q2 0 4 -0.5t4 -0.5q0 3 1 6t1 6h-8.5h-9.5v0zM442 568q3 -5 6 -10.5t5 -11.5q1 -2 1.5 -4t1.5 -4q-1 -4 -2 -7l-2 -6q5 1 9 2t9 2q-2 2 -3.5 5
t-1.5 6q0 9 -0.5 17t-0.5 17q-5 -2 -10.5 -3.5t-11.5 -2.5zM471 574l6 -20t6 -19h6.5h6.5q-1 6 -1 12t-1 12l-6 2l-6 2q-1 1 -1 3v4q2 0 4.5 0.5t5.5 0.5v2v2q-5 0 -10 -0.5t-10 -0.5v0zM566 570q0 -3 -0.5 -5t-0.5 -5q-2 0 -5 -0.5t-5 -1.5q1 -3 3 -6.5t2 -7.5
q0 -5 -1.5 -9t-2.5 -9q3 0 6 0.5t6 0.5v2v2q3 0 5.5 0.5t5.5 0.5v4v4l-4 2t-3 3t0.5 3.5t2.5 3.5h4t4 1v2.5v2.5t-1.5 1.5t-2.5 1.5q0 1 0.5 2.5t1.5 3.5q-4 1 -7.5 1.5t-7.5 1.5v0zM422 561q1 -2 2.5 -4.5t3.5 -5.5l-2 -2l-2 -2q-2 0 -3.5 1t-3.5 1q0 2 -1 4.5t-1 5.5
l-4 -2l-4 -2q2 -5 4.5 -10.5t5.5 -10.5q3 1 6.5 1.5t6.5 1.5q1 -5 1.5 -10t-1.5 -9q4 0 8 0.5t8 2.5q0 4 -0.5 8t-1.5 7q-2 4 -4.5 8.5t-4.5 8.5q-1 3 -2 6.5t-3 6.5l-4 -2t-4 -3zM582 520q5 -2 10 -4.5t10 -4.5v3v4q1 0 1.5 1t1.5 1q-1 1 -3 2.5t-3 2.5v2.5v2.5l1.5 1.5
t1.5 0.5v2.5t-1 2.5t-3.5 2.5t-1.5 3.5q2 3 4.5 4t5.5 2q2 2 3 4.5t3 4.5h-5.5h-5.5q-1 2 -2 3.5t-2 2.5q-4 -11 -7.5 -22t-7.5 -22zM385 549q-1 -1 -0.5 -2.5t1.5 -3.5q4 -9 9 -18.5t10 -18.5q4 1 7.5 2.5t6.5 2.5q-5 10 -9.5 20.5t-9.5 20.5q-4 0 -7.5 -0.5t-7.5 -2.5z
M617 551q-1 -3 0 -5.5t1 -5.5q-2 -2 -4.5 -3.5t-5.5 -2.5q2 -2 4 -3.5t4 -2.5q-3 -5 -5 -9.5t-4 -9.5q1 -1 2.5 -2t3.5 -2q3 6 6.5 12t7.5 12q-2 1 -4 2.5t-3 3.5q2 2 4 2.5t4 0.5q3 1 5.5 2.5t4.5 4.5l-6 2l-6 2q-2 1 -4.5 1.5t-4.5 0.5zM365 532q1 -3 2 -7l2 -8
q-1 -1 -1.5 -2l-1.5 -3q1 -1 3 -2.5t3 -3.5q4 3 7 5.5t6 5.5q-2 6 -4 11.5t-4 11.5l-6 -4l-6 -4v0zM639 525q-2 -1 -3.5 0t-3.5 1q-2 -2 -3.5 -5t-3.5 -6l4 -2t3 -3q-1 -3 -3.5 -5.5t-3.5 -5.5q2 -1 4.5 -2.5t4.5 -2.5q6 9 12.5 18.5t12.5 18.5q-3 2 -6.5 4t-6.5 3
q-2 -3 -3.5 -6.5t-3.5 -6.5v0zM661 521l4 -4t3 -4q0 -1 0.5 -2t-0.5 -1q-3 -1 -5.5 -1h-5.5q-3 -3 -5.5 -7t-4.5 -8q1 -1 3 -2.5t4 -3.5q-2 -1 -3.5 -2t-2.5 -2l2 -2l3 -3q2 2 4.5 3.5t4.5 3.5l-2 4t-1 4v2t1 2q2 1 5 1.5t5 1.5q3 3 5.5 6.5t5.5 6.5q-4 3 -7.5 6t-7.5 5
q-1 -1 -2.5 -2t-2.5 -2zM502 519q0 -11 0.5 -22t0.5 -22q5 1 10 1t10 -2q1 1 2.5 2t1.5 3q-4 2 -7.5 4.5t-7.5 5.5q1 7 2 14.5t1 14.5h-6.5t-6.5 1v0zM521 515v-11v-11q2 -1 4.5 -2.5t4.5 0.5q4 5 4.5 10.5t1.5 11.5q-4 1 -7.5 1.5t-7.5 0.5zM377 504l4 -6l4 -6q4 3 7.5 5
t7.5 5l-4 6l-4 6q-4 -2 -8 -4.5t-7 -5.5v0zM475 512l-6 -2t-7 -2q1 -3 1.5 -5.5t1.5 -4.5h3.5h3.5q1 -1 1 -2t1 -2l2 -12l2 -12q4 0 8 1t9 1v5t-1 5q-1 2 -4 3.5t-4 4.5q-1 1 -0.5 2t1.5 2q2 1 4 1t4 1q0 3 -0.5 6t-0.5 6q-1 0 -2.5 0.5t-2.5 0.5v2v2h-7t-7 -1v0zM545 512
q-2 -9 -4.5 -17.5t-4.5 -17.5q3 -1 5.5 -2t4.5 -1q1 1 1.5 2.5t0.5 2.5q2 1 4.5 1.5t3.5 2.5q1 1 2 3t1 4q1 3 2 5.5t1 5.5q0 2 -1 3.5t-2 2.5q-4 1 -7 2.5t-7 2.5v0zM322 499q4 -4 7.5 -8t6.5 -8q3 1 5.5 2.5t4.5 1.5q2 -2 2.5 -4.5t0.5 -4.5q-2 -2 -4 -3.5t-3 -4.5v-8
t-1 -8q6 6 11 12l10 12q-7 8 -14.5 15.5t-15.5 14.5l-4.5 -4.5t-5.5 -4.5v0zM662 475q1 -2 2.5 -3.5l3.5 -3.5q8 7 15.5 14t15.5 14l-6 6t-7 5l-12 -16l-12 -16v0zM442 500q1 -3 2 -5.5t1 -5.5t-2 -5t-4 -3q2 -5 4 -9.5t4 -9.5q5 2 10 3t9 2q-1 3 -2.5 5t-2.5 5q2 2 4.5 3.5
t4.5 3.5l-5 2.5t-6 2.5q-1 4 -2 7t-2 7q-4 -1 -7 -1.5t-6 -1.5zM570 501q-3 -6 -5.5 -12t-5.5 -12l-2 -4t0 -4q2 -4 5.5 -5.5t6.5 -3.5q2 5 4 10.5t5 10.5q-1 1 -3 1.5t-3 2.5q1 4 3 7l4 6q-1 1 -1 2t-1 3q-2 -1 -3.5 -1.5t-3.5 -0.5v0zM576 461q3 -3 5.5 -5t4.5 -5
q2 2 3.5 4t2.5 4q2 -1 4 -2.5t4 -3.5l4.5 4.5l4.5 4.5q-3 3 -7 6.5t-6 8.5q1 3 2.5 5.5t2.5 5.5q-2 2 -5 3.5t-5 3.5q-4 -9 -7.5 -17.5t-7.5 -16.5v0zM304 481l2 -2l2 -2q2 2 4 3.5t5 2.5q2 0 2.5 -2t0.5 -3q-2 -1 -3.5 -3t-3.5 -4q3 -2 6 -4.5t6 -4.5q2 2 5 4.5t6 5.5
q-5 5 -10 9.5t-10 9.5q-3 -2 -6 -4.5t-6 -5.5zM674 459l4 -4l4 -4q-1 2 -1.5 5t0.5 5q2 1 4.5 -0.5t4.5 -1.5q1 1 2.5 2t2.5 1q5 5 10 9l10 8q-2 3 -4.5 6t-4.5 5q-8 -8 -16 -15.5t-16 -15.5v0zM606 486q0 -3 -0.5 -5t-0.5 -5q1 -2 3 -4l3 -3q3 2 5.5 5t5.5 6q-4 1 -7 3
l-6 4q-1 0 -1.5 -0.5t-1.5 -0.5zM405 483q4 -5 7.5 -10t5.5 -11q1 -2 0.5 -5t-0.5 -6q1 -2 2.5 -3.5l3.5 -3.5l10 8t10 7q-3 2 -6 2.5t-5 2.5q-1 1 -1 1.5t1 1.5q0 2 1.5 4t2.5 4q-2 2 -3 3.5t-3 3.5q-2 -2 -4 -3.5t-5 -2.5q-3 2 -6 4.5t-6 5.5l-2 -2t-3 -1v0zM389 473
q2 -2 4 -5t1 -6v0q-3 -1 -5.5 1.5l-4.5 4.5l-4 -4t-4 -3l14 -16t13 -16q3 3 6.5 5.5t6.5 5.5q-3 3 -5.5 6t-4.5 5q1 3 2.5 5t0.5 5q-2 5 -4 9t-5 8q-3 -1 -5.5 -2.5t-5.5 -2.5v0zM291 463q10 -6 19 -13t18 -13q1 2 3 3.5t3 3.5l-8.5 8.5t-9.5 8.5q-2 0 -4 -0.5t-5 -0.5
q-1 0 -2 1t-1 2q0 2 1 3.5t2 2.5q-2 1 -3.5 2t-3.5 2q-2 -2 -4 -4.5t-5 -5.5zM604 439q5 -4 9 -8l8 -8q3 3 5 5.5t5 5.5l-5.5 5.5t-4.5 5.5l8 12l8 12q-2 1 -4.5 2t-4.5 3q-6 -9 -12 -17.5t-12 -17.5zM712 460q-1 1 -2.5 2t-2.5 2q-6 -5 -10.5 -10t-10.5 -10q1 -1 1 -2t1 -2
q3 0 5 1.5t5 0.5q1 -2 -0.5 -4t-2.5 -4q2 -3 4 -5.5t4 -4.5q1 1 2 1.5t1 1.5q-1 2 -2 3.5t-1 3.5q0 1 0.5 1.5l1.5 1.5q7 5 13.5 10t13.5 10q-3 3 -5 6.5t-5 6.5q-2 -2 -5 -4.5t-5 -5.5v0zM627 445l5.5 -5.5t4.5 -5.5q-3 -3 -6 -6.5t-6 -7.5l4 -4l4 -4q7 8 14.5 16.5
t14.5 16.5q-1 2 -2.5 4t-3.5 4q-2 -2 -4 -4.5t-5 -4.5q-1 4 0.5 7.5t2.5 6.5q-3 2 -5.5 4t-4.5 3q-4 -5 -7 -10l-6 -10v0zM282 453q0 -1 0.5 -2t0.5 -3l-2.5 -2.5t-2.5 -3.5q1 -2 1.5 -4t-0.5 -4q0 -2 -0.5 -4t-1.5 -4q2 -1 3.5 -1.5t2.5 -1.5q1 3 2 5t4 3q2 0 4.5 -1
t5.5 -2q1 -1 2.5 -1.5t1.5 -2.5q1 -2 0 -4.5t-2 -5.5q2 -1 3.5 -2t3.5 -2q1 2 3 4.5t4 3.5q1 1 2 1h3q1 3 2.5 6t2.5 6q-8 5 -16 10.5t-16 10.5q-2 2 -5 1.5t-6 -0.5v0zM359 447q1 -2 3 -3.5t3 -4.5q0 -2 -0.5 -4t-1.5 -4q4 -3 7 -6.5t7 -6.5l3 3t5 3q1 0 2 -0.5t0 -1.5
q-1 -3 -2.5 -5t-3.5 -3q1 -1 2.5 -1.5t2.5 -1.5q3 3 5.5 7t5.5 7q-6 7 -12.5 14t-12.5 14q-3 -2 -6.5 -3.5t-6.5 -2.5v0zM733 451v-4.5v-5.5q-4 -1 -8.5 -2t-8.5 -3q0 -3 0.5 -6.5t1.5 -7.5q-3 -2 -6 -5t-6 -5l2 -4l2 -4q10 5 19.5 10t19.5 10q0 2 -0.5 4t-0.5 4
q-4 -1 -8 -2.5t-9 -1.5q3 4 6.5 6t7.5 4q-3 3 -5.5 7t-6.5 6v0zM484 445q-1 -2 -1 -4.5t-1 -4.5q-2 0 -4 -1t-4 0t-3.5 2.5t-3.5 2.5q-3 0 -4 -3t0 -5q2 -3 4.5 -5.5t5.5 -4.5q2 -1 3 -2.5t2 -3.5q-1 -2 -2.5 -4t-1.5 -4t1.5 -3.5l2.5 -2.5q4 0 7 1l6 2v12.5v12.5q1 3 3 6
t3 6q0 1 -0.5 2.5t-0.5 3.5q-3 -1 -6 -1.5t-6 -1.5zM503 421h-2t-2 -1q0 -3 0.5 -6.5t0.5 -6.5q3 0 7 0.5t8 0.5v19.5v19.5h-5h-5q0 -7 -0.5 -13t-1.5 -13v0zM531 447q-1 -2 -1 -4v-4q-2 0 -4.5 -0.5t-4.5 -0.5v-11.5v-11.5q2 -1 3.5 -1t2.5 -1q0 -2 -0.5 -4t-0.5 -4
q4 -1 7.5 -1.5t7.5 -1.5q1 6 3 12t4 11q-2 2 -4 3t-4 3q1 2 2 5t2 5q-3 1 -6.5 2.5t-6.5 3.5v0zM643 419l2.5 -2.5l2.5 -2.5q3 3 6.5 6t6.5 7q-1 2 -2.5 4t-2.5 4l-6 -8t-7 -8zM339 418q3 -1 6 -1t6 -1q2 0 3 -1.5t3 -3.5q3 -4 7.5 -7.5t8.5 -6.5q2 1 3.5 2.5t3.5 2.5
l-15.5 15.5l-14.5 14.5q-3 -3 -6 -7t-5 -7v0zM574 420q-2 -3 -0.5 -6.5t1.5 -6.5q-2 -4 -5 -7.5t-5 -8.5q0 -1 -0.5 -2.5t1.5 -1.5q3 -1 5 0.5t4 3.5h5t4 2q2 2 1.5 4.5t-1.5 4.5l7.5 7.5t6.5 7.5q-4 3 -8 5.5t-9 4.5q-2 -1 -3.5 -3t-3.5 -4zM416 409q3 -3 5.5 -6t4.5 -6
q2 -1 4.5 -1t4.5 -1q0 -1 -0.5 -2.5t-1.5 -2.5q-1 0 -3 0.5t-3 0.5q-4 3 -7.5 6t-7.5 6q-1 -1 -2.5 -2t-3.5 -2q9 -7 17 -14l16 -14q2 3 4.5 5t4.5 4q-1 3 -3 5.5t-1 6.5q2 -1 4.5 -3t4.5 -4q1 1 2 1.5t2 1.5q-3 6 -7 11.5t-8 11.5q-2 -1 -5 -1.5t-5 -0.5q0 2 0.5 4.5
t2.5 4.5l-2 2l-2 2q-4 -3 -7.5 -6.5t-7.5 -6.5v0zM713 398q1 -3 1.5 -6t1.5 -6q2 1 4.5 1.5t4.5 1.5l2 -4t2 -3q3 0 5.5 0.5t4.5 1.5q-1 4 -2 7.5t-1 7.5q3 -1 6 -4t5 -6h5.5h4.5q0 3 -0.5 5.5t-0.5 4.5q1 1 2 1t2 1l-4 8l-4 8q-10 -5 -19.5 -9.5t-19.5 -9.5v0zM275 412
q-3 0 -5.5 0.5t-5.5 0.5q-1 -2 -1.5 -3.5t-0.5 -3.5q5 -3 10.5 -5.5t11.5 -5.5v-6v-6h6h6v2.5t1 3.5h4.5h5.5q0 2 1.5 4.5t-0.5 4.5l-1.5 1.5t-1.5 0.5q-3 1 -5.5 1t-5.5 1v4v4q-3 1 -5 2.5t-5 2.5l-4 -2t-5 -1v0zM600 408q-1 -2 -1.5 -4t-0.5 -4q-1 -1 -1 -2.5t-1 -1.5
q-6 -5 -11.5 -9t-10.5 -8q3 -3 6 -7l6 -8q3 2 5 3t4 3q-1 2 -2.5 4t-3.5 4l10.5 10.5t10.5 11.5q-2 2 -5 4t-5 4v0zM334 406q4 -3 7.5 -5.5t7.5 -5.5t7.5 -7.5t6.5 -8.5q3 2 5.5 4.5l4.5 4.5q-5 5 -10.5 10t-10.5 9q-4 -1 -9 -1h-9zM652 383q1 -3 2 -5l2 -4l8 2t9 3
q3 1 5.5 4t5.5 5t6 2.5t5 2.5l-4.5 4.5l-4.5 4.5q-9 -5 -17.5 -9.5t-16.5 -9.5zM262 392v-2t-1 -2t-3 -1.5t-3 -2.5v-5t-1 -5q8 -3 16 -6.5t16 -6.5q2 0 3 1.5t3 2.5h3t3 1t1 3t-1 4t-3.5 2.5t-4.5 0.5q-4 0 -7.5 1t-6.5 3q-2 2 0 4.5t0 4.5q-1 3 -3.5 4t-5.5 3l-2 -2t-3 -2
zM600 376q1 -1 2 -2.5t2 -3.5q-4 -3 -7.5 -6t-6.5 -6l2 -2l2 -2q4 2 8 5l8 6v4t2 3t3.5 -0.5t3.5 -2.5q2 2 4 3.5t4 2.5q-2 4 -5 8l-6 8q-4 -3 -8 -7l-8 -8v0zM393 380q2 -2 5 -4.5t5 -4.5l2.5 2.5t2.5 1.5q2 1 3 0l2 -2q5 -3 9.5 -7t8.5 -8q2 2 3 3.5t3 3.5
q-9 6 -17.5 12.5t-17.5 13.5q-2 -3 -4.5 -5.5t-4.5 -5.5v0zM681 374q-5 -2 -11 -3t-11 -2q1 -5 1.5 -9.5t1.5 -9.5l6 2l6 2q3 3 5.5 6.5t7.5 5.5q4 1 7.5 2.5t7.5 3.5q-2 3 -4 6.5t-4 7.5q-3 -3 -6 -6.5t-7 -5.5v0zM752 377q-3 -1 -5 -1.5t-4 -1.5t-4 0.5t-4 1.5
q-1 0 -2 -0.5t-2 -1.5h-4h-4v-2.5t-1 -3.5q2 0 4 -0.5t5 -0.5q1 -2 2.5 -4t3.5 -3t4 -0.5t4 1.5q6 3 12.5 1t12.5 -1q-1 3 -3.5 5t-3.5 4v2.5t1 1.5q1 1 2.5 1h2.5q-1 2 -1.5 4.5t-1.5 4.5q-1 1 -2.5 1h-2.5q-4 0 -5 -3.5t-4 -4.5zM318 367q0 -2 1 -3.5t2 -2.5q3 0 5.5 0.5
t4.5 0.5l2 4t1 3q-4 0 -8 -0.5t-8 -1.5v0zM386 363q6 -4 12 -6.5t12 -6.5q-1 -2 -2 -4.5t-2 -5.5q1 -1 2 -1.5t2 -0.5q3 0 5.5 -0.5t5.5 -0.5q1 3 -0.5 6t-1.5 6q0 2 1.5 3.5l2.5 2.5q-1 3 -3 5.5t-5 4.5q-2 1 -3.5 -1t-2.5 -4q-5 2 -9.5 4.5t-9.5 4.5q-1 -1 -2 -3t-2 -3z
M595 346l2.5 -5l2.5 -5q4 2 8 5t8 5l3 1.5l3 1.5q2 -1 3.5 -2.5l3.5 -3.5q2 1 4.5 2t4.5 2q-2 6 -4.5 11.5t-5.5 10.5q-8 -5 -16.5 -11t-16.5 -12zM256 364q0 -3 0.5 -5t0.5 -5h-5.5h-4.5q-1 -1 -1 -3v-3q6 -1 11.5 -1.5t11.5 -1.5q-1 2 -1.5 3.5t-1.5 3.5h4.5h4.5v-1.5
v-1.5q2 0 4.5 -0.5t4.5 -0.5q1 2 1 3.5v2.5q-6 3 -13 6t-13 5q-1 0 -1.5 -0.5t-1.5 -0.5v0zM329 354h-7t-8 1q-1 -5 -3 -9.5t-3 -8.5q2 -2 4.5 -3t4.5 -3l2 6t3 4q1 -2 2 -4.5t1 -5.5h3.5h2.5v2.5v3.5q3 -1 5 -1t4 -1v-3v-4q2 -1 5 -1.5t6 -1.5q0 2 0.5 3.5t0.5 2.5
q-2 1 -4.5 1.5t-4.5 1.5q0 3 0.5 6t0.5 6h6.5t6.5 1v4.5v4.5q-4 2 -7 4t-6 2q-4 -1 -7 -4t-8 -4v0zM680 349q-2 -2 -4.5 -3.5t-4.5 -3.5l18 4l18 4q-1 2 -1 3.5t-1 3.5q-2 0 -3.5 -0.5t-3.5 -1.5q-1 2 -3 4.5t-5 1.5q-4 -1 -6 -4.5t-4 -7.5v0zM384 356l-2 -4l-2 -4
q0 -2 1 -3.5t1 -3.5q1 -1 2.5 -2t1.5 -2q1 -2 1.5 -3.5t0.5 -3.5q7 -1 14.5 -3t14.5 -4v3v2q-5 2 -9.5 3.5t-9.5 2.5q0 4 -0.5 8.5t-1.5 8.5q-3 1 -6 2.5t-6 2.5v0zM1 5h409q-37 13 -70.5 35t-59.5 51q-30 33 -49.5 73t-27.5 83q-4 27 -4 54.5t4 53.5q-25 -43 -50 -87
t-50.5 -87.5t-51 -87.5t-50.5 -88v0zM818 227q-9 -40 -29 -76t-48 -65q-23 -24 -50 -42.5t-57 -31.5q-4 -2 -8.5 -3.5t-8.5 -3.5h406v1q-7 10 -13 21l-12 22l-44 76t-43.5 76t-43.5 76l-44 76q5 -32 4 -63.5t-9 -62.5v0zM668 333v-4.5v-4.5q3 1 5 1.5t4 0.5q3 0 5 -1t5 -2
q1 3 3.5 5.5t6.5 2.5q5 0 8.5 -2.5t8.5 -3.5q-2 4 -3 8t-3 7q0 2 -1.5 1.5t-2.5 -0.5l-18 -4l-18 -4v0zM765 338v-2v-2h-7h-6q0 -2 -0.5 -3.5t-0.5 -3.5q-1 -2 -3 -3t-4 1q-2 1 -3 3t-2 3h-2.5t-2.5 -1v-6v-5q5 0 10 -0.5t10 -0.5q2 0 3 1.5t3 1.5q4 0 7.5 0.5t7.5 0.5
q-1 4 -1.5 7.5t-0.5 7.5h-4t-4 1zM375 329v-5v-5q2 -1 3.5 -1.5t1.5 -1.5q1 -2 2 -3.5t0 -3.5t-3.5 -3.5t-4.5 -2.5q4 -2 7.5 -4.5t6.5 -4.5l2 4t1 4h14h14q0 4 -0.5 7.5t-0.5 7.5q-11 3 -21.5 6t-21.5 6v0zM307 322q0 -2 -0.5 -5t-0.5 -5q4 0 8 0.5t7 0.5v5v5
q-3 0 -6.5 -0.5t-7.5 -0.5zM328 312q4 0 7.5 -0.5t6.5 -1.5q0 2 -0.5 4t-0.5 4q-2 1 -3.5 2.5t-3.5 2.5q-2 -3 -3.5 -5.5t-2.5 -5.5v0zM619 318q0 -1 -0.5 -2.5t-0.5 -2.5q3 0 6 -0.5t6 -0.5q0 -1 0.5 -2.5t0.5 -3.5q-6 -1 -12.5 -2.5t-12.5 -2.5q1 -1 1 -2.5t1 -2.5
q9 0 18 0.5t18 0.5q0 2 0.5 4t0.5 4q-1 4 -1.5 7.5t-1.5 7.5q-6 -1 -11.5 -1t-11.5 -1zM701 318v-3.5v-3.5h-2.5h-3.5q0 1 -0.5 2t-1.5 2h-6h-6q-1 -1 -1.5 -2.5t-1.5 -2.5t-2.5 -1.5t-2.5 -1.5q-2 -1 -2 -3t2 -4q2 -1 5 -1t6 -1q7 0 13.5 -0.5t13.5 -0.5q-1 3 -2 5.5
t-1 4.5q1 3 3.5 4.5t5.5 2.5v3v3q-4 0 -8 -1t-8 -1v0zM273 316h-14h-14v-6.5v-6.5q6 -1 11 -1.5t10 -0.5v-2v-2h10.5h10.5q-1 1 -1 2.5v3.5q-2 1 -3.5 2t-2.5 2q0 2 1.5 3t3.5 3v2.5v2.5h-6h-6v-1v-1v0zM760 315v-1.5v-0.5q-6 0 -13 -0.5t-13 -0.5q-1 -3 -1 -6v-6
q2 -1 4 -2.5t4 -1.5l3 1.5t1 1.5q6 1 12 1.5t12 0.5q0 2 0.5 3.5t0.5 2.5q1 1 2.5 1.5t2.5 0.5q0 2 0.5 3.5t0.5 3.5q-4 -1 -8 -1h-8zM312 303q-1 0 -3 -0.5t-4 -1.5q2 -2 3.5 -4.5t3.5 -4.5q-1 -2 -2.5 -4.5t-2.5 -4.5v-2.5t1 -1.5h7.5h6.5v4t2 3t3.5 -1t2.5 -3
q2 -1 3.5 -1h3.5v6t1 6q3 1 6 1.5t6 0.5q-1 2 -1.5 4t-1.5 3t-3 2t-4 1q-7 -1 -14 -1t-14 -1v0zM245 295v-6.5v-6.5q4 -1 8 -2.5t8 -2.5q0 -3 0.5 -6t0.5 -6h4h4q0 3 -0.5 5.5t-0.5 5.5q5 0 9.5 -0.5t9.5 -0.5v6v6q-6 1 -13 1.5t-13 1.5v2v3h-8.5h-8.5v0zM374 285l4 -4t2 -5
t-1 -5.5t-2 -5.5h6.5t6.5 1q2 3 3 6.5t2 7.5q6 1 11.5 1.5t10.5 0.5v7v6q-4 -1 -8 -0.5t-9 -0.5q-6 -2 -12.5 -4.5t-13.5 -4.5v0zM747 294v-2.5v-2.5h-6t-6 1v-3.5t-1 -2.5h5.5h4.5q0 -2 0.5 -4t0.5 -4q-1 0 -3 -0.5t-3 -0.5v-3.5v-2.5q4 -2 8 -2.5t8 -0.5v7v6h4.5h4.5l6 -2
l6 -2v9.5v9.5h-3.5h-3.5q-2 -1 -2.5 -3t-1.5 -4h-2t-2 -1v4v4h-6.5h-7.5v0zM682 290q1 -1 1.5 -2.5t0.5 -3.5h13.5h12.5q2 -1 3.5 -2t2.5 -2v4.5v4.5q-8 1 -17 1h-17zM603 288q2 -5 5.5 -8t8.5 -3q4 0 8.5 0.5t8.5 0.5q0 3 -0.5 5.5t-0.5 5.5q-8 0 -15 -0.5t-15 -0.5v0z
M340 276q-3 -2 -5 -4.5t-5 -3.5q-4 0 -8.5 2t-9.5 1q-1 0 -2 -0.5t-1 -2.5q1 -3 3.5 -4.5t4.5 -4.5q0 -2 -2 -4.5t-2 -4.5q2 -3 5 -3h5q4 2 7 4t7 4q0 1 -0.5 2.5t-0.5 2.5l8 2t8 1q0 4 -0.5 8t-0.5 8q-3 -1 -5.5 -1.5t-5.5 -1.5v0zM400 275q0 -3 -1 -6t-4 -5t-7 -4l-8 -4
q0 -2 0.5 -3.5t1.5 -2.5l10 4l10 4q0 1 1 2.5t2 2.5q4 3 8 4t9 2q-1 2 -1.5 3.5t-1.5 2.5h-9h-10v0zM686 275q-1 -1 -1.5 -2t-1.5 -2q-4 1 -7.5 1.5t-6.5 1.5q0 -2 -0.5 -3.5t-0.5 -3.5q5 -2 10.5 -4.5t9.5 -5.5v-4.5t-1 -4.5q-1 -1 -3 -1h-4q-1 2 -1 4.5t-1 4.5l-3.5 3.5
t-4.5 0.5q-2 -3 -3.5 -6.5t-3.5 -5.5q6 -3 12 -5.5t12 -5.5q4 -1 8 -3t8 -1q0 2 -2 2.5t-3 1.5q-1 5 -1 9.5v9.5q1 1 2 1.5t2 1.5q-1 2 -1 3.5v3.5l1.5 1.5t1.5 0.5q0 2 -0.5 4t-1.5 4q-4 0 -8 -0.5t-7 -0.5v0zM600 274q0 -3 -0.5 -6.5t-1.5 -6.5q7 -3 14 -6.5t14 -7.5v-4.5
v-4.5q2 -1 4 -1h4q2 6 4 12.5t4 12.5q-3 -1 -6 -1.5t-6 -0.5q-3 1 -3.5 3.5t-0.5 4.5q1 1 2.5 2t2.5 3h-4h-3q-1 -2 -2.5 -4t-3.5 -2q-3 -1 -6 0l-6 2q0 2 -1 3.5t-1 2.5q-1 0 -2 -0.5t-2 -0.5v0zM709 274q-2 -6 -3.5 -12.5t-2.5 -12.5q1 0 1.5 -0.5t1.5 -0.5l4 12l4 12
q-2 0 -3 0.5t-2 1.5v0zM246 269q1 -7 1.5 -14.5t1.5 -14.5q3 -1 5 -1.5t5 -1.5q0 2 -0.5 4t-0.5 4q9 0 18 1t18 1q-1 4 -1.5 8t-1.5 8q-2 0 -4 0.5t-4 0.5v-2.5v-3.5h-12.5h-12.5q0 3 -0.5 6t-0.5 6q-3 -1 -5.5 -1h-5.5v0zM756 261q-3 0 -6.5 1t-7.5 2q-3 0 -6.5 0.5
t-6.5 -1.5q1 -3 3.5 -5t4.5 -5q-1 -1 -2 -2.5t0 -3.5q1 -1 4 -1h5q6 1 11.5 -0.5t10.5 -3.5q2 0 4 1l4 2l-2.5 2.5t-1.5 3.5q-1 2 -1.5 4t-0.5 4q2 0 3 0.5t3 0.5q0 2 0.5 3.5t0.5 3.5q-3 0 -6.5 0.5t-6.5 0.5q-1 -2 -2.5 -4t-3.5 -3zM388 239q2 -4 4 -8.5t4 -8.5q3 2 5 3.5
t5 2.5q-2 2 -3.5 4t-1.5 4q1 2 2.5 3t3.5 2q5 4 10 7.5t11 7.5l-2 4t-3 4q-9 -6 -17.5 -12.5t-17.5 -12.5v0zM344 250q-1 -2 -3 -3.5t-4 -2.5q-3 -1 -5.5 -1h-5.5q-3 -2 -5 -3.5t-4 -2.5q2 -4 3.5 -8.5t3.5 -9.5h2.5h3.5l-2 6t1 5q3 0 4.5 -2.5t2.5 -4.5q2 1 4 1h4
q-1 3 -1.5 6.5t3.5 5.5l6 4l6 4q-2 3 -4 6.5t-4 5.5q-2 -1 -3 -3t-3 -3v0zM597 245h-4t-5 -1l-2 -4l-2 -4q4 -4 8 -7.5t8 -7.5l4 2t5 3q3 -3 6 -5.5t6 -4.5q2 4 3.5 7.5t3.5 7.5q-3 1 -5.5 1.5t-5.5 1.5q1 2 1.5 4t0.5 4q-4 3 -8.5 5.5t-9.5 4.5q-1 -2 -2 -3.5t-2 -3.5v0z
M415 240q1 -2 2.5 -4.5t2.5 -4.5q-5 -5 -10 -9.5t-10 -9.5l4.5 -4.5l4.5 -4.5q5 5 9.5 10.5t9.5 10.5h6t5 2q1 0 1.5 1.5t-0.5 1.5q-2 2 -5 3t-5 3q-1 1 -1 2.5v3.5v3t-2 2q-3 0 -6.5 -1.5t-5.5 -4.5v0zM664 233q-1 -1 -3 -1.5t-3 -1.5q-1 0 -1 -1.5t-1 -2.5q3 -2 5.5 -4.5
l4.5 -4.5q4 -2 8 -3t8 -3q3 -1 6 0.5t6 3.5q2 1 3.5 3t0.5 5q-1 2 -3 3.5t-3 2.5q-2 -1 -4.5 -2.5t-4.5 -2.5q-3 2 -5.5 4.5t-3.5 5.5q-1 2 -3 3.5t-5 1.5q-2 -1 -1.5 -2.5t-0.5 -3.5v0zM737 234q-2 0 -3 1.5t-2 3.5h-4t-4 -1v-4t1 -3t3 -1.5t4 -1.5q1 -2 1.5 -3.5t1.5 -3.5
q3 1 6 1.5t6 -0.5q5 0 9 -1t8 -1h2.5t0.5 1q-1 3 -3 5.5t-3 5.5q0 2 -1.5 4.5t-3.5 2.5q-5 -2 -9.5 -4t-9.5 -1v0zM282 235h-7t-8 1l-2 -4t-3 -3t-4.5 -1h-5.5q1 -2 1.5 -3.5t1.5 -3.5q0 -3 3 -4t5 -2q0 -2 0.5 -3.5t1.5 -3.5l5 2.5t6 2.5q-1 2 -2 5t-2 5q4 0 7.5 -0.5
t7.5 -0.5q-1 -1 -1 -2t-1 -2q4 1 8 2.5t8 2.5q0 4 -0.5 8t-1.5 8l-8 -2t-9 -2v0zM352 233q0 -2 0.5 -4.5t0.5 -5.5q-6 -4 -13 -7t-13 -6l4 -8t4 -7q3 1 6.5 2.5t6.5 2.5q-1 2 -2.5 4t-2.5 3l4 2l4 2q1 0 2.5 -0.5t3.5 -0.5q0 -2 0.5 -3.5t1.5 -3.5l6.5 6.5l6.5 6.5
q-1 2 -2 4.5t-3 4.5l-3 3t-4 3q-2 2 -4 2h-4v0zM575 229q-3 -4 -7 -8.5t-7 -8.5q2 -2 4 -4.5t4 -4.5q1 1 2 1.5t2 1.5q3 -2 5 -4.5t3 -5.5l-3.5 -3.5l-3.5 -3.5q2 -3 4.5 -5.5l4.5 -4.5l6 4l6 4q-6 7 -11.5 13t-10.5 13l2 2t3 2l12 -12l12 -12q3 4 6 7.5t6 7.5l-4 4t-5 3
q-2 0 -4 -2t-4 -3q-3 2 -4.5 6.5t-4.5 6.5q-2 1 -3.5 1h-3.5q-1 2 -2.5 3t-3.5 2zM434 215q-5 -4 -10.5 -8.5t-10.5 -9.5l4 -4l4 -4l9.5 9.5l9.5 9.5q1 1 2.5 2t3.5 2q1 -1 2 -2.5t3 -2.5l2 4l2 4q-2 3 -4 5t-4 5q-3 -3 -6.5 -5t-6.5 -5v0zM716 221q2 -4 5 -6.5t6 -5.5
q4 -2 7.5 -4t6.5 -5l4 -4t4 -3t5 -0.5t4 2.5q2 3 3 6.5t-1 7.5q-1 1 -1 3.5t-3 2.5q-4 0 -8.5 -1t-8.5 0q-5 1 -9.5 3.5t-9.5 3.5q-1 1 -2 0.5t-2 -0.5zM653 219q-3 -4 -6.5 -7t-6.5 -7q5 -4 9 -8t9 -8q-1 -2 -3 -4l-3 -3q4 -3 8 -6.5t8 -6.5q2 -1 3 -0.5t2 1.5q2 4 4 7.5
t4 6.5l-8 6t-9 5q-1 1 -1.5 3t-1.5 3q4 -1 7 -2.5t6 -2.5l2 4t2 3q-7 4 -13 8l-12 8v0zM261 201q1 -2 1.5 -4t1.5 -4l8 2l8 2q2 -2 4 -3t5 -2q1 2 3 4t3 5q3 1 6.5 2t6.5 3q-1 3 -2.5 5.5t-3.5 5.5l-20 -8t-21 -8v0zM339 188l4 -8t4 -7q4 2 7.5 4t6.5 4q0 1 -1 2.5t-1 2.5
q5 4 10.5 7.5t11.5 6.5q-2 2 -3.5 4t-3.5 4q-9 -5 -17.5 -10t-17.5 -10v0zM538 201q1 -7 3 -14t3 -14q-2 -1 -3.5 -3t-3.5 -4q1 -1 2 -3t1 -3q5 1 9.5 2.5t8.5 2.5q-3 10 -5.5 19.5t-5.5 19.5q-3 -1 -5 -1.5t-4 -1.5v0zM476 193q-2 -1 -3.5 -1.5t-2.5 -2.5q-3 -2 -5 -5.5
t-4 -7.5q-1 -1 -1.5 -2.5t-0.5 -3.5q1 -2 2.5 -3.5l3.5 -3.5q1 4 2.5 7t4.5 5q2 2 4.5 3.5t4.5 4.5q2 4 4 8.5t3 8.5q-1 0 -3 0.5t-3 0.5q-2 -2 -3 -4t-3 -4zM526 198q0 -3 0.5 -6t0.5 -7q-3 1 -6.5 1h-7.5q0 -2 0.5 -4t0.5 -5q3 0 6 -0.5t7 -0.5q-1 -2 -1.5 -4t-0.5 -4
h-7.5h-7.5q1 -2 1 -4.5v-4.5q6 -1 12 -1t11 -1q0 11 -0.5 21t-0.5 21q-2 0 -3.5 -0.5t-3.5 -0.5zM499 195q-3 -6 -5.5 -12t-5.5 -11l-6 -2t-6 -3q-1 -1 -2 -3t0 -4q2 -1 4.5 -1.5t4.5 -1.5q0 2 1 4t3 2q3 -1 5.5 -3.5t5.5 -4.5q1 0 3 0.5t3 1.5q1 10 1.5 20t0.5 20
q-1 0 -3 -0.5t-4 -1.5v0zM301 191q1 -3 2 -5.5t1 -5.5q-1 -3 -3.5 -3.5t-4.5 1.5q-1 1 -1.5 3t-0.5 3q-2 0 -3 0.5t-2 0.5l-2 -2t-3 -1q-2 -1 -2.5 1t-1.5 3q-2 -1 -5 -2t-5 -2q1 -2 3 -3.5t4 -3.5q1 -1 2 -3l2 -4q-2 0 -3 -1t-3 -1l4 -6t3 -6q3 1 5.5 2t5.5 2q2 0 4.5 -1
t4.5 -2q1 2 2.5 3t3.5 3v4.5v4.5q4 2 8 3.5t7 4.5q-1 1 -2.5 3t-2.5 3h-2.5h-2.5q-1 3 -2.5 5.5t-3.5 5.5q-1 -1 -2.5 -2t-3.5 -2v0zM381 191q-2 -1 -4 -1t-4 -1q-3 -3 -4.5 -6.5t-3.5 -5.5q-4 -3 -7 -6l-6 -6q3 -3 6.5 -6t6.5 -7l3.5 3.5l2.5 2.5q0 2 -1 3t-2 3
q0 1 0.5 1.5t1.5 0.5q2 0 3 -1.5t3 -2.5l3.5 3.5t4.5 3.5q-1 2 -2 4.5t0 3.5q3 1 5.5 0t4.5 -2l2 4l2 4q-2 3 -4.5 5t-4.5 5q-2 -1 -3.5 -1.5t-2.5 -0.5zM625 184q2 -2 5 -4t5 -4q-2 -2 -4.5 -3.5t-4.5 -3.5q2 -2 4.5 -4t4.5 -3t4 -1t4 -1q-2 -1 -3 -3t-3 -4q3 -2 5.5 -4.5
t5.5 -4.5q1 2 2 3.5t2 2.5q3 2 5.5 3.5t5.5 3.5l-10 10t-10 9v4.5t3 2.5q1 1 2.5 2t0.5 3q-3 3 -7 3.5t-8 0.5q-2 -2 -4.5 -4t-4.5 -4v0zM695 172q5 -4 11 -8.5t11 -8.5q3 1 5.5 1.5t5.5 0.5q2 0 4 -1.5t4 -1.5t2.5 2t-0.5 4q-2 4 -6.5 5.5t-7.5 4.5q-1 2 -1 4t-2 3
q-3 -1 -5.5 -2t-5.5 0q-1 1 -1 2v3t-1.5 3.5t-3.5 2.5q-4 -2 -5.5 -6t-3.5 -8v0zM604 165l12 -18t13 -17q3 2 6.5 4t6.5 3l-3.5 7t-4.5 6l-2.5 -2.5l-2.5 -2.5q-2 2 -3.5 4t-2.5 4q1 2 3 3.5t3 3.5l-4.5 4.5t-5.5 4.5q2 1 4.5 2.5t4.5 3.5q-1 1 -1 2t-1 2h-2.5h-3.5
q-4 -3 -8 -7t-8 -7zM392 169q3 -2 5.5 -4.5l4.5 -4.5q-1 -2 -2 -3.5t-2 -3.5q-1 0 -3 0.5t-4 1.5q-2 2 -3 4t-3 4l-8 -8l-8 -8q2 -3 4.5 -5t4.5 -4q3 3 6.5 5.5t6.5 5.5q2 -2 3 -3.5t3 -2.5q-3 -3 -5 -5.5t-5 -4.5q2 -2 3.5 -3t3.5 -3q6 8 12 15.5t11 15.5q-4 5 -8 9.5
t-9 8.5q-2 -2 -4 -3.5t-4 -3.5v0zM323 170l-4 -8t-5 -8q-3 -2 -6 -4.5t-6 -3.5q-2 -1 -3.5 1t-3.5 3q-2 -1 -3.5 -2t-3.5 -2q-1 -1 -0.5 -2t1.5 -1q2 -3 5 -5.5t5 -5.5q6 2 10.5 6t8.5 7q1 -1 1 -2t1 -2q4 1 7.5 4t7.5 7l2 2t1 3q1 1 0 2l-1 1q-3 -1 -5 -3t-5 -3
q-2 0 -3 1.5t0 2.5t3 1.5t3 1.5q0 1 0.5 2.5t0.5 3.5q-1 1 -3.5 1.5t-4.5 1.5v0zM680 153q3 -3 5.5 -6.5t5.5 -6.5q2 1 4.5 1.5t4.5 1.5q5 -4 9.5 -7.5t8.5 -6.5q4 4 7.5 8t7.5 8q-3 1 -6 1.5t-6 0.5q-3 2 -5.5 4t-5.5 3q-3 0 -6 -1.5t-6 0.5q-2 3 -3.5 6.5t-2.5 7.5
q-3 -3 -6 -6.5t-6 -7.5v0zM576 144l6 -8l6 -8q-2 -1 -3.5 -3t-3.5 -4l6 -6l6 -6q1 1 2.5 1.5t2.5 0.5q-1 1 -1.5 2t-0.5 3q-1 2 0.5 3t3.5 0q1 0 2.5 -1t3.5 -2q0 1 0.5 1.5t0.5 1.5q-1 3 -2.5 6.5t-2.5 6.5l2 4t1 5q-1 2 -3.5 3t-4.5 2q0 1 -0.5 2t-0.5 2q0 2 2 3.5t0 4.5
q-6 -3 -11.5 -6.5t-10.5 -7.5v0zM425 156q-2 -5 -4 -9.5t-4 -8.5q-4 -2 -7.5 -2.5t-5.5 -3.5t-1.5 -6t0.5 -5q4 0 8 0.5t8 1.5q4 7 7 14.5t6 14.5q-2 1 -3.5 2t-3.5 2v0zM328 135q-3 -1 -6 0t-5 -1t-4 -3.5t-4 -2.5t-3.5 -2t-0.5 -3q2 -4 5 -7t7 -6q1 0 2 0.5t2 0.5
q-2 2 -4.5 3.5t-3.5 4.5q0 2 2.5 3t4.5 -1q2 -1 4 -2.5t5 -1.5q0 3 -1.5 5.5t-1.5 4.5q2 0 4.5 -0.5t4.5 -1.5q1 -1 2 -1t2 2q-1 2 -1 4.5t1 5.5q2 2 4 3.5t4 2.5l-2 4t-3 3q-3 -4 -6.5 -7.5t-7.5 -6.5zM421 113l6 -4t6 -3q3 0 5 1.5t3 4.5q-2 1 -4 2.5t-4 2.5q2 8 4.5 15
t4.5 14q-1 1 -2.5 1.5t-2.5 1.5l-8 -18zM677 148q-1 -2 -2.5 -4t-2.5 -5q3 -3 6 -6.5t6 -7.5q0 -1 -1 -2.5t-2 -3.5q4 -3 8.5 -6.5t9.5 -6.5q1 -1 2.5 0.5t0.5 2.5q-1 3 -3 5t-3 4q2 1 3.5 1.5t3.5 1.5q2 0 3 -2t3 -3q1 1 2.5 2t2.5 2q-3 4 -7.5 7.5t-8.5 5.5q-6 4 -11 7.5
t-10 7.5v0zM557 140l4 -20t4 -19q5 1 10.5 2.5t11.5 2.5q-3 3 -6 6.5t-5 7.5q-1 2 0.5 4.5t2.5 5.5l-2.5 2.5t-3.5 1.5q-3 1 -5 3l-4 4q-1 0 -3 -0.5t-4 -0.5v0zM456 133q-4 -1 -7.5 -2.5t-5.5 -4.5q0 -3 1.5 -6t2.5 -6q0 -2 -0.5 -3.5t-0.5 -3.5l-2 -2l-2 -2l1.5 -1.5
t1.5 -0.5q3 -1 5.5 -0.5t5.5 0.5q1 6 2.5 13t2.5 14q2 1 3 2t3 2v2v3q-3 0 -5 1t-5 2v-3.5t-1 -3.5v0zM608 135q3 -4 5 -7.5t4 -7.5l2.5 2.5t3.5 2.5q-2 3 -3.5 6t-2.5 6q-2 0 -4 -1t-5 -1v0zM479 133q-1 -3 -1.5 -5.5t-0.5 -5.5h-4t-3 -1q-2 -2 -3 -5t-3 -5q-2 -4 -1.5 -8
t-0.5 -7q4 -2 8 -3l8 -2l2 4t1 4q0 3 -2 4.5t-2 3.5q0 3 2.5 5t4.5 3q0 5 -0.5 9t-0.5 9h-2h-2v0zM529 132v-8v-9q2 -1 4 -2.5t2 -3.5q0 -3 -1.5 -5t-2.5 -4v-5v-4q7 1 14 2.5t14 3.5q0 2 0.5 3.5t0.5 3.5h-7t-6 2q0 1 0.5 2.5t0.5 3.5q2 1 4 1.5t4 0.5q-1 2 -1 4v4h-6t-6 1
v5.5t-1 4.5q-3 0 -6.5 -0.5t-6.5 -0.5v0zM515 131q-1 -6 -1 -12.5t-1 -12.5q0 -2 0.5 -4.5t0.5 -4.5h5t4 -1v17.5v17.5h-4h-4zM665 126q-2 0 -4.5 1t-5.5 1q-1 -1 -2 -3t0 -4q1 -3 3 -5.5t3 -5.5q2 -3 4.5 -5t4.5 -5q3 1 6.5 1.5t5.5 -1.5q1 -2 -0.5 -4.5t-1.5 -4.5l8 2t7 4
q-5 6 -11 11.5t-10 11.5q1 2 2.5 4.5t1.5 5.5q-3 0 -5.5 -1.5t-5.5 -2.5v0zM357 115q2 -2 3 -3.5t2 -3.5q-1 -2 -1.5 -3.5t-1.5 -3.5q-2 1 -4.5 3t-4.5 2q-1 -4 2.5 -6.5t3.5 -5.5v-3v-3q-3 2 -6.5 3.5t-6.5 2.5q-1 -1 -1.5 -3t-1.5 -4q5 -3 9 -7t10 -6q4 5 7.5 10t7.5 10
l-3.5 3.5t-1.5 4.5q1 2 2 3.5t2 3.5q-1 1 -2 2.5t-2 2.5q0 2 0.5 3.5t1.5 3.5q-1 1 -2.5 2t-2.5 2q-2 -3 -4 -5zM384 112q0 -4 -1 -8.5t-2 -8.5q-3 -5 -6.5 -9.5t-6.5 -8.5q3 -2 5 -4.5t4 -4.5q0 -2 0.5 -4.5t0.5 -4.5q2 0 4.5 0.5t4.5 0.5q-1 2 -1 4.5v5.5h4h4q-2 3 -4 5.5
t-4 5.5q-1 1 -1 2t1 2q2 2 3 5t3 5q1 3 2.5 5t2.5 5l-6 4t-7 3v0zM646 100l-2 -4t-2 -3l6 -8t6 -7l2.5 -2.5t3.5 -1.5q2 3 0 5.5t-4 5.5h4h3q2 -1 3.5 -3t2.5 -4q2 2 3.5 4t2.5 4q-2 4 -6 6l-8 4q-4 3 -7 8t-7 8q-1 -3 -0.5 -6t-0.5 -6zM635 109q-7 -3 -13 -6.5t-12 -7.5
q1 -2 1.5 -3.5t1.5 -3.5h5.5t4.5 -2q1 -4 -2 -7.5t-1 -8.5q2 -3 5 -0.5t5 -0.5q2 -2 3 -4.5t3 -4.5q3 -1 6.5 1t5.5 4q1 1 1 2.5t-1 1.5q-3 1 -6 1t-5 1q1 2 3 3t1 4t-3 6.5t-3 6.5q-1 1 -1 2.5v2.5q2 2 4 3.5t3 2.5q0 2 -0.5 4.5t-2.5 3.5q-1 1 -2 0.5t-1 -1.5zM410 97
q0 -3 -3 -3.5t-5 -0.5q-2 -1 -4.5 -1.5t-2.5 -3.5t3 -4.5t5 -3.5q-2 -3 -2.5 -6t-1.5 -6t-4.5 -5t-4.5 -6q1 -2 2.5 -3.5t3.5 -2.5q4 2 5.5 6.5t3.5 7.5l2 6t2 5q3 0 4.5 -2t4.5 0q2 2 4 3.5t4 4.5q1 2 -0.5 4t-2.5 4t-2.5 2.5t-2.5 0.5q-1 1 -1.5 2t-1.5 2h-2h-3v0zM576 82
q0 -5 0.5 -10.5t1.5 -11.5q0 -4 -1 -8.5t-3 -8.5q-2 -2 -4.5 -1.5t-4.5 -0.5q0 -2 1.5 -4.5t3.5 -3.5q3 0 5 0.5t4 0.5q2 1 3.5 1t2.5 1q1 4 0.5 7t0.5 6q1 2 2.5 2h2.5q2 -2 3 -4t3 -3t4.5 -1h4.5v4v3q0 4 -2 6.5t-5 4.5q-3 5 -4.5 11t-5.5 11q-2 0 -4.5 1t-5.5 1
q-1 0 -2 -1t-1 -2v0zM435 84q-3 -3 -4 -6.5t-3 -6.5l-3.5 -3.5t-3.5 -1.5h-4h-4q-1 -5 -3.5 -9t-2.5 -9q0 -2 1 -2.5t2 -0.5q2 0 3.5 -0.5t2.5 0.5q2 2 1.5 5t1.5 5q1 1 2.5 1h2.5q1 -3 0 -5.5t-2 -4.5q1 -2 2.5 -3t2.5 -2q3 0 6.5 0.5t6.5 1.5q2 1 2 3t1 4t0 4t-2 3
q-1 2 -1 4.5v4.5q3 1 5 2l4 2q-2 3 -2.5 6.5t-1.5 7.5h-4.5h-5.5v0zM461 78q-3 -1 -4.5 -4t-1.5 -5q-1 -4 -0.5 -7.5t-1.5 -6.5l-3.5 -3.5t-2.5 -3.5q-2 -3 -1.5 -6.5t-1.5 -6.5q4 -1 7 0t7 1q3 0 5 -3t5 -3q3 2 3 5t1 6l-5.5 5.5t-4.5 5.5q0 4 2.5 6.5l4.5 4.5t2.5 5
t-1.5 6q-1 0 -2.5 1t-2.5 1q-1 1 -2 1.5t-2 0.5v0zM559 78v-7v-6h-5h-5v4.5v4.5q-2 0 -5.5 -0.5t-3.5 -3.5q1 -5 3.5 -9t1.5 -9q0 -5 -2.5 -9t-3.5 -8q-1 -2 -1 -4t2 -3q3 0 6.5 0.5t6.5 1.5q-1 3 -2 6.5t1 6.5q4 2 8.5 2.5t8.5 2.5q0 7 -0.5 14.5t-0.5 14.5q-3 0 -5 0.5
t-4 0.5v0zM489 70v-7.5v-7.5l-6 -2l-6 -2q1 -2 2.5 -4.5t1.5 -5.5q-1 -4 -1.5 -7t-1.5 -6q1 0 2.5 -0.5t2.5 -0.5q1 3 1 5t1 4q1 5 5 6t7 3q0 6 -0.5 12.5t-0.5 12.5h-3.5h-3.5v0zM525 70q-1 -10 -2.5 -21t-0.5 -22q3 0 5.5 0.5t5.5 0.5v7.5v7.5q2 1 4.5 2t3.5 3
q-1 2 -3.5 4t-4.5 3q0 4 0.5 7.5t0.5 6.5q-2 1 -4.5 1h-4.5v0zM503 65q1 -6 1 -12t-1 -12q0 -1 -0.5 -2t-1.5 -2q-1 0 -2.5 -0.5t-3.5 -1.5q-3 0 -3.5 -3t-1.5 -5h4.5t4.5 -1q2 0 4.5 -1t4.5 -1h2t2 1q0 4 -0.5 8.5t0.5 9.5q1 0 2.5 0.5t2.5 1.5v6.5t-1 7.5q-1 0 -2.5 1
t-2.5 2q1 1 2 2.5t1 3.5q-2 0 -4 0.5t-4 -0.5q-1 0 -2 -0.5t-1 -2.5v0z" />
    <glyph glyph-name="uniE90D" unicode="&#xe90d;" 
d="M511 949q13 -57 26 -114.5t26 -114.5q3 -1 7 -1.5t8 -1.5q34 46 67.5 92t67.5 93q-7 -56 -15 -111.5t-15 -111.5q5 -3 9.5 -6t9.5 -6l92 54l92 54q-25 -45 -51 -90.5t-51 -90.5q4 -6 9 -12t9 -12q47 6 93.5 12.5t93.5 13.5q-36 -30 -71.5 -60t-71.5 -60q3 -9 5.5 -18.5
t4.5 -19.5q41 -12 82.5 -24t82.5 -24q-40 -12 -80.5 -24t-80.5 -24q-2 -18 -5.5 -36.5t-9.5 -36.5q-13 -41 -37 -79t-55 -68q11 -27 22 -53.5t22 -53.5q-22 -20 -47.5 -35t-52.5 -27q-4 -1 -8 -2.5t-7 -3.5h-1q-3 17 -6.5 33.5t-6.5 33.5l-16 80l-16 80q14 14 27.5 28.5
t26.5 28.5q2 1 3.5 2.5t1.5 3.5q9 32 17.5 64t17.5 64q-37 -19 -74.5 -37.5t-74.5 -37.5q-29 13 -57.5 26t-57.5 27q-8 3 -16 7t-16 7h-37h-37v8v8h61.5h61.5v41.5v40.5h-99.5h-99.5v-68.5v-68.5q4 -6 8 -11l8 -10l46 -60l46 -60q-12 -57 -24.5 -114.5t-24.5 -114.5
q-31 11 -59.5 27.5t-52.5 38.5q9 28 19 56l20 56q-34 34 -58.5 76t-36.5 89q-3 12 -5 24.5t-3 25.5l-78 24l-78 24q-2 1 -4 1.5t-4 0.5v1q8 2 16.5 4.5t16.5 4.5q34 9 67.5 18.5t67.5 18.5l4 18t4 17q-36 31 -73 61.5t-73 61.5q47 -7 95 -14.5t95 -14.5q5 7 9.5 13.5
t10.5 13.5q-26 45 -52 91t-52 91q47 -27 93 -54t92 -55q5 3 9 5.5t8 5.5q-7 55 -14 111l-14 112q33 -46 66.5 -92t67.5 -92q4 0 8 1t8 1q12 58 24 115.5t24 114.5v0zM449 612v-72v-72h25.5h25.5v-43v-43h19.5h19.5v114.5v115.5h-45.5h-44.5v0zM340 578v-55v-55h46.5h46.5v55
v55h-46.5h-46.5zM556 578v-98v-98h42h42v98v98h-42h-42zM655 553v-85v-86h38h38v86v86q-19 -1 -38 -1h-38v0z" />
    <glyph glyph-name="uniE90E" unicode="&#xe90e;" horiz-adv-x="932" 
d="M579 960v0q-3 -8 -5.5 -16.5t-4.5 -17.5q-3 -17 -2.5 -34t3.5 -33q-14 10 -29.5 17t-32.5 10q2 5 5 10l6 10q11 17 26.5 30.5t33.5 23.5v0zM353 960q2 -6 4 -11t3 -10q5 -20 5 -40.5t-3 -40.5q14 11 29.5 18t32.5 10q-3 5 -6 10.5t-6 10.5q-11 17 -26 30t-33 23v0z
M130 924q-17 -20 -31.5 -40t-28.5 -42q-12 -19 -22.5 -38.5t-19.5 -39.5q-10 -24 -17.5 -48.5t-10.5 -50.5q3 6 6.5 12t6.5 12q12 22 27 43t35 38q15 13 34 21.5t39 9.5q20 2 40 -4.5t37 -18.5q16 -11 28.5 -26.5t19.5 -34.5q8 30 21.5 58.5t34.5 52.5q-15 -4 -30.5 -3.5
t-29.5 4.5q-21 7 -38.5 19.5t-32.5 28.5q-14 15 -26 33t-21 37q-5 -5 -10.5 -11t-10.5 -12v0zM728 871q-15 -14 -32.5 -25.5t-37.5 -17.5q-13 -3 -27 -3t-28 3q21 -24 34.5 -52.5t21.5 -58.5q7 20 20.5 36t30.5 28q11 7 23 12t25 8q15 2 30.5 0t29.5 -7q21 -9 38 -23t30 -31
q14 -17 25 -36t21 -39v2q-3 21 -8.5 41.5t-13.5 40.5q-9 23 -20.5 45t-24.5 43q-14 23 -29.5 44.5t-32.5 41.5q-5 7 -10.5 13t-11.5 12q-10 -21 -23 -40.5t-30 -36.5zM455 657q14 2 27 -0.5t26 -6.5t25 -10.5t22 -14.5q7 -6 13.5 -12.5t11.5 -13.5q2 -5 3.5 -10.5
t-0.5 -10.5q-2 -8 -7.5 -15t-11.5 -13q-9 -9 -20 -16t-23 -12q-13 -5 -26.5 -8.5t-27.5 -3.5q-12 -1 -24 2t-24 7q-12 5 -24 12t-22 15q-8 7 -15 14.5t-11 16.5q-2 5 -1 10t4 9q5 9 13 16.5t16 13.5q17 12 36.5 20.5t39.5 10.5v0zM449 830q-20 -3 -37.5 -12.5t-32.5 -23.5
q-18 -17 -30.5 -39t-20.5 -45q-13 -37 -15 -75.5t5 -76.5q6 -27 17 -52.5t28 -47.5q12 -16 28.5 -29t36.5 -20q17 -6 35 -6.5t35 4.5q20 6 36.5 18.5t29.5 27.5q16 19 27 41.5t18 46.5q8 31 9 62.5t-4 61.5q-4 28 -14 54t-26 48q-11 17 -26.5 31t-34.5 22q-15 7 -31.5 9.5
t-32.5 0.5v0zM672 641q1 -16 1.5 -32t-1.5 -32q4 2 9 2.5t9 0.5q9 -1 18 -3.5t17 -7.5q11 -6 21.5 -15t19.5 -19q12 -15 20.5 -31.5t14.5 -34.5q7 -21 10.5 -44t4.5 -46t-1 -45t-5 -44q6 13 10.5 27.5t8.5 29.5q6 22 11 44t9 44q5 21 8.5 42.5t5.5 42.5l2 28t0 27
q-19 2 -37 6.5t-36 11.5q-23 8 -45 19t-42 25q-10 8 -19.5 16.5t-16.5 19.5l2 -16t1 -16v0zM248 655q-15 -15 -33.5 -26.5t-37.5 -20.5q-26 -13 -53.5 -21.5t-56.5 -11.5q-1 -10 -0.5 -19.5t0.5 -18.5q2 -18 4.5 -35.5t5.5 -35.5q5 -30 11.5 -60.5t15.5 -60.5l8 -28t10 -28
q-5 37 -6 74t6 73q6 27 16.5 52.5t28.5 46.5q12 14 26.5 25t32.5 17q8 2 17 2.5t17 -2.5q-1 8 -1.5 16.5t-0.5 17.5q1 15 2 30.5t3 30.5q-3 -4 -6.5 -8.5t-8.5 -8.5v0zM458 622q-8 -2 -14.5 -7t-10.5 -13q-3 -8 -2.5 -17t5.5 -16q6 -9 15.5 -13t19.5 -3q8 1 14.5 6t10.5 12
q4 6 4.5 13t-1.5 14q-2 6 -6 11.5t-10 8.5q-6 4 -12.5 5t-12.5 -1v0zM273 511q-1 -12 -4.5 -24.5t-9.5 -24.5t-15 -22t-19 -19q-9 -7 -18.5 -13.5t-17.5 -14.5q2 -13 6 -25.5t9 -25.5q14 -43 30.5 -85t33.5 -83t35.5 -81t38.5 -79q7 -14 15 -28.5t18 -28.5q4 -5 8 -10.5
t10 -10.5q-12 24 -21.5 49t-17.5 50q-18 53 -30 107.5t-19 110.5q-2 18 -4 36.5t-3 36.5l-2 26t1 26q0 6 1.5 12t5.5 11q3 4 7.5 5.5t8.5 1.5q-16 23 -27.5 49.5t-19.5 53.5v0zM659 512q-8 -28 -19.5 -54t-27.5 -50q4 0 8.5 -1t6.5 -5q5 -5 6.5 -11.5t2.5 -12.5q1 -14 0 -27
l-2 -26q-1 -15 -2.5 -30t-3.5 -30q-3 -27 -7 -53t-10 -53q-12 -57 -29.5 -113t-42.5 -110q5 4 8.5 8.5t7.5 9.5q8 11 14.5 22.5t13.5 23.5l22 44t21 45q14 30 27 60.5t26 60.5q14 35 27 70t25 70q3 11 6.5 21.5t5.5 22.5q-9 8 -19.5 15t-19.5 16q-9 8 -17 17t-14 20t-9.5 24
t-4.5 26v0z" />
    <glyph glyph-name="uniE90F" unicode="&#xe90f;" 
d="M487 904h1q1 -2 1.5 -4t2.5 -3q4 -6 9.5 -9.5t10.5 -7.5q5 4 10.5 7.5t9.5 8.5q1 2 2.5 4t1.5 4h1q5 -3 9 -7.5t10 -5.5q16 -1 31.5 -1.5t30.5 -1.5q6 -3 9.5 -8.5t8.5 -9.5q1 -5 2 -10.5t2 -10.5q6 -27 12 -54.5t11 -54.5q2 -13 3.5 -26t4.5 -25q1 -5 4.5 -9t6.5 -8
q-5 -11 -11 -21t-12 -21q-6 -10 -12 -21t-11 -23q-6 23 -19 42.5t-31 35.5l-10 8t-11 7q-1 -2 -2 -3.5t-1 -2.5q-3 -6 -4.5 -12t-3.5 -12q-2 -9 -3 -17.5t2 -17.5q6 -28 14 -55t13 -55q2 -12 3.5 -25t-0.5 -26q0 -3 -2 -5.5t-4 -5.5q-8 -9 -16 -19t-13 -22q-3 -7 -4 -15.5
t1 -16.5q-7 4 -12 9.5t-6 12.5q-3 11 -1 22t6 21q1 4 3 8t1 9q0 7 -2.5 14t-6.5 14q-2 4 -5 7t-8 5q-3 1 -6 -1l-6 -4q-5 -5 -8 -11.5t-5 -13.5q-1 -5 -1.5 -9.5t1.5 -9.5q1 -4 2.5 -8t3.5 -8q2 -9 3.5 -18.5t-1.5 -18.5q-3 -7 -7.5 -12t-10.5 -8q2 8 1 15.5t-3 14.5
q-5 12 -13.5 23t-17.5 21q-1 2 -3 4.5t-2 4.5q-2 12 -1 24t3 23q5 29 13 57.5t15 56.5q3 11 1.5 22t-4.5 22q-2 5 -4 11t-5 11q-6 -3 -11 -7l-10 -8q-17 -16 -30.5 -35.5t-19.5 -42.5l-4 8l-4 8l-12 22l-12 22q-4 6 -7.5 12.5t-6.5 13.5q3 4 6.5 8t4.5 9q2 10 3.5 21t3.5 22
q3 23 8 47t11 47q2 11 4.5 22t4.5 22q5 3 8 8t7 8q2 2 5 2h5q13 1 25 1.5t25 1.5q2 0 5 0.5t6 2.5t6 5t7 5v0zM341 889q-22 -6 -42 -16t-39 -21q-11 -6 -22 -12.5t-21 -14.5q-18 -14 -35 -29t-33 -30q-5 -5 -10 -9t-11 -8q-8 -5 -16 -8.5t-16 -8.5q-5 -3 -8.5 -8.5
t-3.5 -11.5q8 2 15 -1.5t13 -8.5q2 -3 4.5 -5.5t3.5 -5.5q0 -6 -1.5 -11t-2.5 -10q-5 -24 -12.5 -47.5t-14.5 -46.5l-18 -50t-19 -49q-6 -15 -14.5 -28.5t-16.5 -26.5q-6 -9 -11 -18.5t-7 -19.5q-2 -8 -1.5 -16t1.5 -16q2 5 4 9.5t5 9.5q4 5 9.5 9.5t12.5 5.5q2 0 4.5 -1.5
t3.5 -3.5q4 -4 6.5 -8.5t5.5 -8.5q8 -15 16 -30.5t16 -30.5q11 -20 23 -38.5t26 -36.5q10 -12 20 -23l20 -22q15 -16 27.5 -34t19.5 -38q9 -24 10 -50t-2 -51q7 7 11.5 16.5t7.5 19.5q4 13 6 27t3 28q0 17 -6.5 34t-14.5 32q-8 14 -17 26.5t-18 25.5q-14 21 -27.5 43
t-23.5 46q-4 10 -7.5 20.5t-7.5 20.5q-5 12 -9.5 24.5t-6.5 25.5q0 4 -0.5 7.5t1.5 7.5q1 5 3.5 10t4.5 10q1 3 2 7t1 8q-2 28 0 56t9 55q3 14 6.5 27.5t7.5 26.5q1 7 2.5 13t1.5 13q0 2 1 4l2 4q8 15 17.5 29.5t20.5 28.5q15 19 32.5 36.5t37.5 31.5q16 10 34.5 16.5
t38.5 6.5q2 14 6.5 26.5t7.5 25.5q1 3 1.5 6.5t-0.5 6.5q-2 6 -4 11t-5 10q-1 2 -3 4.5t-5 1.5zM676 885q-3 -5 -5.5 -10.5t-4.5 -11.5q-1 -3 -0.5 -6.5t1.5 -7.5q3 -13 7.5 -25.5t6.5 -26.5q11 0 22 -2t21 -6q19 -7 36 -19t31 -26q17 -17 31 -35t27 -38q4 -7 8 -13.5
t7 -13.5q2 -3 1.5 -6t-0.5 -6q2 -12 6 -24t7 -24q8 -31 12 -62.5t3 -63.5q0 -4 -0.5 -8.5t0.5 -8.5q1 -5 3 -9l4 -8q2 -5 3.5 -9.5t0.5 -9.5q0 -18 -7 -34.5t-13 -33.5q-8 -24 -19.5 -47t-25.5 -44q-12 -20 -25.5 -39t-25.5 -39q-7 -12 -13 -25t-8 -27q-1 -8 -1 -16t1 -16
q1 -10 3.5 -20.5t5.5 -19.5q3 -10 7 -18.5t11 -15.5q-3 25 -2 50t9 49q7 19 18 36t25 32q15 18 31.5 35.5t30.5 37.5q14 21 26.5 44t24.5 46q5 9 10 18.5t11 18.5q2 3 4.5 5.5t5.5 3.5q5 0 9.5 -2t8.5 -6q5 -5 8.5 -12t6.5 -14q1 7 1.5 14t-0.5 15q-2 10 -7 19.5t-10 18.5
q-8 12 -15.5 24t-13.5 25q-5 11 -9.5 23t-9.5 24q-13 34 -24.5 68.5t-20.5 69.5q-2 9 -4.5 18.5t-3.5 19.5q1 4 4 7l6 6q6 5 12.5 7.5t13.5 0.5q0 4 -1.5 7t-3.5 6q-4 5 -9.5 8.5t-11.5 5.5q-9 5 -17.5 10t-15.5 11q-18 17 -36 33.5t-38 31.5q-10 8 -21 14.5t-22 12.5
q-19 12 -39.5 21.5t-42.5 15.5q-2 1 -3.5 -0.5t-2.5 -3.5v0zM442 648q-4 -13 -9 -25.5t-12 -23.5q-5 -9 -12 -17t-15 -14q-9 -6 -18.5 -11t-19.5 -10q-5 -3 -9.5 -6.5t-9.5 -6.5q-10 -7 -18.5 -14.5t-16.5 -17.5q-13 -17 -20.5 -37t-11.5 -41q-3 -16 -4 -31.5t0 -31.5
q0 -16 2 -32.5t4 -32.5q2 -12 4 -24.5t4 -24.5q1 -3 2 -6.5t2 -7.5q2 3 5 3.5t6 -0.5q8 -2 14 -7l12 -10q10 -9 19 -19.5t16 -21.5q5 -7 9.5 -14t7.5 -15q5 -11 8.5 -23.5t6.5 -24.5q3 -14 4 -28t1 -28q-1 -11 -4 -22t-9 -21q-1 -2 -3 -4.5t-4 -5.5h1q2 2 5 4l6 4
q14 10 26 23t20 28q12 20 18.5 42t9.5 45q2 16 1 32t-5 32q-3 13 -7.5 25.5t-11.5 23.5q-10 -3 -20.5 -3t-20.5 4t-18.5 12t-14.5 18q-2 4 -3.5 9t-0.5 9q0 7 4.5 13.5t10.5 8.5q7 2 13.5 0.5t11.5 -5.5q-6 10 -12.5 19.5t-13.5 18.5l-9.5 9.5t-10.5 7.5q1 13 2.5 25.5
t5.5 24.5q3 13 9 25.5t15 22.5q6 7 13.5 13t16.5 9q4 2 8 2.5t8 0.5q-3 11 -1 23t6 24l8 24t7 25q3 17 3.5 34.5t-0.5 34.5q-2 -4 -4.5 -7t-6.5 -5v0zM571 660q-1 -16 -0.5 -32.5t3.5 -33.5q2 -14 6.5 -27.5t9.5 -26.5q4 -11 5.5 -22.5t-1.5 -22.5q6 0 11.5 -1.5t10.5 -3.5
q8 -4 15.5 -10.5t12.5 -14.5q8 -11 13.5 -23t8.5 -25q3 -11 4.5 -22.5t1.5 -22.5q-5 -3 -9.5 -6.5t-8.5 -8.5q-8 -9 -15 -19.5t-13 -20.5q5 4 11.5 5.5t12.5 -0.5q7 -2 11 -8t5 -13q1 -5 -0.5 -10t-3.5 -9q-6 -11 -15 -19t-20 -12q-9 -3 -19.5 -3t-19.5 3q-8 -13 -13 -27.5
t-8 -30.5q-2 -13 -3 -27t1 -28q2 -20 7.5 -39.5t15.5 -38.5q10 -21 26 -38.5t37 -28.5q-9 9 -13.5 21t-5.5 25q-2 15 -0.5 30t3.5 30q4 15 8.5 30.5t11.5 29.5q10 16 21.5 31.5t25.5 28.5q6 5 12.5 9.5t13.5 7.5q3 1 6.5 1t4.5 -4q4 9 5.5 18t3.5 18q4 23 6.5 45.5t3.5 45.5
q1 18 -0.5 35t-4.5 34q-5 23 -14.5 45t-26.5 39q-7 7 -15 13.5t-16 11.5q-11 9 -24 14.5t-24 13.5q-9 6 -16.5 14t-12.5 18q-7 11 -12.5 24t-9.5 26q-4 2 -6.5 5t-4.5 7zM705 638q-1 -5 -2 -9l-2 -8q-3 -10 -6.5 -20t-10.5 -19q5 0 9 -2t7 -5q8 -6 13.5 -14t9.5 -18
q4 12 3.5 23.5t-2.5 22.5q-3 13 -7.5 25t-11.5 24v0zM319 638q-5 -8 -8.5 -17t-6.5 -18q-4 -14 -6 -29.5t3 -30.5q2 6 5 11.5t7 10.5q5 7 12 11.5t15 5.5q-4 5 -6.5 10t-4.5 10q-3 8 -5.5 17t-4.5 19v0z" />
    <glyph glyph-name="uniE910" unicode="&#xe910;" horiz-adv-x="612" 
d="M291 924q5 8 9 17t6 18q2 -13 8 -24.5t13 -22.5q1 -3 2.5 -6t2.5 -6q3 -11 9 -21.5t12 -19.5q3 -4 5.5 -7t4.5 -7q5 -10 9.5 -21t9.5 -22q3 -8 3 -17.5t1 -18.5q3 3 5.5 6.5t3.5 6.5q3 6 5 12l4 12q0 4 -1 7.5t-1 6.5q-2 8 -0.5 16t6.5 14q0 -11 3 -21.5t9 -19.5
t13 -16.5t15 -14.5q5 -4 7.5 -9.5t3.5 -10.5q1 -3 2 -5.5t2 -4.5t4 -1t3 3t-0.5 4t-0.5 3q0 2 1 3.5t1 2.5v2.5v2.5q1 2 2.5 3.5t2.5 4.5q2 5 3.5 10.5t1.5 10.5q1 4 0 8.5t-2 8.5q-2 7 -4.5 14t-4.5 14q-2 2 -3 4.5t-2 4.5q-1 1 -3 2t-2 3t2 3t2 3q1 4 -1.5 7t-4.5 6h3.5
t3.5 -1q4 -4 4 -9t4 -9q6 -7 12 -14.5t11 -15.5q4 -7 7 -14t4 -14q1 -5 0.5 -9.5t0.5 -8.5q2 -9 4.5 -18.5t3.5 -18.5q3 -13 3.5 -26.5t-0.5 -26.5q-1 -8 -3.5 -15t-8.5 -13q-5 -6 -12 -10t-14 -9q-7 -4 -13 -10.5t-10 -14.5q-1 -3 -4 -5.5t-5 -5.5q-3 -5 -4 -10.5t-2 -11.5
q0 -3 -0.5 -6.5t1.5 -6.5q1 -2 3 -3t4 -3q-1 -1 -2.5 -2t-2.5 -2q2 -2 4.5 -3.5t2.5 -4.5q-6 0 -10.5 3t-7.5 7q-4 5 -9 8.5t-10 6.5q-1 1 -3 2t-3 2v15.5t2 15.5q3 2 7.5 3.5t7.5 4.5q4 5 5 10.5t1 11.5q1 8 -3.5 16t-4.5 17q0 8 -3.5 15t-8.5 12l-5.5 5.5t-4.5 6.5
q-1 1 -1.5 2.5t-2.5 2.5t-3 -1t0 -4q0 -3 1.5 -4.5t2.5 -3.5q2 -3 2.5 -6.5t0.5 -6.5q1 -2 1.5 -3.5t-0.5 -3.5q-2 -4 -5 -7t-3 -7q-4 -1 -7.5 -1.5t-7.5 -0.5q-6 -1 -11.5 -3t-10.5 -5q-2 4 -2.5 7.5t-1.5 7.5q0 2 -2.5 3.5t-4.5 2.5q0 -4 -0.5 -9t-3.5 -8q-5 -7 -12 -10.5
t-14 -5.5q-1 4 0.5 8t4.5 8q4 5 10.5 8.5t12.5 7.5q1 0 1 1v2q5 2 10 5t9 7t6 9.5t3 11.5q0 14 -3.5 27.5t-10.5 24.5l-6 8t-5 8q-1 1 -2 2.5t-1 3.5q-1 6 -3.5 11t-6.5 9q-2 3 -4.5 4.5t-4.5 4.5t-4.5 5.5l-5.5 5.5q-3 2 -6.5 4t-7.5 3q-1 1 -2.5 1.5t-3.5 0.5q-2 2 -3.5 5
t-3.5 4q-1 1 -2.5 1t-3.5 -1l2 -6l2 -6q2 -2 5 -3.5t4 -4.5t2 -5.5t3 -5.5q1 -3 3 -5.5t4 -5.5q1 -2 0.5 -4.5t-1.5 -5.5t-3 -6.5t-4 -6.5q0 -3 1.5 -5t2.5 -5q-3 -1 -6 -2.5t-6 -2.5q-4 -3 -7 -6.5t-7 -6.5q-5 -5 -11.5 -8t-11.5 -7q-7 -4 -12 -10t-8 -13q-3 -6 -4 -12.5
t-1 -13.5v-7.5t2 -6.5q1 -3 3.5 -5.5l4.5 -4.5q-6 0 -13 2t-13 6q-4 3 -6.5 8t-1.5 10q2 6 4.5 11t3.5 11q0 2 -1 3t-2 3q-15 -12 -24.5 -29t-11.5 -35q-1 -8 -1 -15.5t3 -14.5q1 -3 3.5 -6.5t6.5 -5.5q2 -1 4.5 -1.5t4.5 -1.5q6 -2 12 -3.5t11 -4.5l4 -4t3 -5
q-4 1 -8.5 1.5t-8.5 2.5q-4 3 -7.5 6.5t-7.5 6.5q1 -9 3 -19t2 -19q-7 -8 -16 -13.5t-18 -11.5q-3 1 -5 2.5t-4 3.5q3 5 5 10t3 10t1 10.5t-1 10.5q0 3 -1 6t-4 4q-2 2 -4 3.5t-3 4.5q-2 3 -3.5 6.5t-3.5 7.5q-3 4 -7 8t-8 7q-6 4 -12.5 6.5t-11.5 6.5q-4 4 -7 9t-4 10
q-3 10 -3.5 20.5t-0.5 21.5q1 19 7 36.5t8 35.5v9t1 8q1 3 2.5 6t3.5 5q2 4 3.5 9t4.5 9q1 2 3 3.5t3 2.5q5 4 8.5 9t8.5 9q1 0 1.5 1t1.5 2q1 2 1 4.5t1 4.5t2.5 3t3.5 2q-2 -4 -3 -8t0 -9q0 -1 0.5 -2.5t0.5 -2.5q-1 -2 -2.5 -3t-1.5 -3q-2 -2 -3 -4.5t-3 -4.5l-2 -4
t-1 -4q-1 -3 -0.5 -6t0.5 -6q-1 -2 -2.5 -3.5l-2.5 -2.5q-2 -3 -1.5 -5.5t0.5 -5.5q-1 -3 -1 -7t1 -7q1 -5 3 -9t4 -9q1 -3 1 -6v-6q0 -4 2 -8t5 -6q2 -2 5 -3.5l5 -2.5q1 10 4.5 19t7.5 18q9 19 21 37.5t24 36.5q-4 -8 -5.5 -16.5t-1.5 -17.5v-14t3 -14q1 -4 3 -7t6 -5
q2 20 9 38.5t18 34.5q6 11 14 21l16 20q2 2 4 5t1 6q0 2 -2 2h-3q2 5 5.5 10.5t5.5 10.5v0zM564 729q0 -3 1 -6t0 -7q0 -1 -1 -2t1 -3q2 -3 4 -7l4 -8q3 -8 5 -16t2 -16q-1 -3 -1.5 -6.5t-2.5 -6.5q-1 -2 -1.5 -3.5t-0.5 -3.5q0 -5 -1 -10t-3 -10q-3 -6 -8 -11t-11 -10
q-8 -5 -15.5 -10.5t-13.5 -13.5q-4 -6 -6 -13t-3 -14q2 2 3.5 4t3.5 4q6 4 13.5 5.5t14.5 3.5q4 0 8 1.5t7 5.5t4 9.5t3 9.5q0 2 2 3t4 0q2 -2 2 -5v-5q1 -9 -0.5 -18.5t-4.5 -17.5q-2 -7 -5.5 -13.5t-9.5 -11.5q-4 -3 -8.5 -3.5t-9.5 0.5v-1v-2q-6 1 -12 -1t-10 -7
q5 0 10.5 1t10.5 4q-3 -15 -13 -26.5t-14 -25.5q-1 0 -2.5 0.5t-1.5 2.5q-2 4 -2.5 8t-1.5 8q-1 -3 -1.5 -5.5t-0.5 -5.5q-1 -10 0.5 -19.5t2.5 -19.5q1 -9 -0.5 -17.5t-2.5 -17.5q0 -3 0.5 -5.5t1.5 -5.5q2 5 5 10.5t6 9.5q6 8 14 14t16 10l16 8t14 11q4 4 7 9t4 10
q-3 -5 -8.5 -9t-12.5 -5q-1 -1 -3 -0.5t-2 2.5q1 3 2.5 5.5t3.5 4.5q4 5 9 7t9 6q3 4 5 8.5t2 8.5q2 9 2 17t-1 17q-2 -8 -6.5 -14t-10.5 -11q-2 -2 -4 -3t-5 0q-1 1 -1 3.5v4.5q1 5 5.5 8.5t8.5 6.5q8 4 15 9.5t11 12.5q7 11 8.5 23t0.5 24q-1 11 -4 21.5t-5 21.5
q-1 5 -1 11t-1 11q-2 9 -5 17.5t-8 16.5q-4 6 -8.5 10.5l-9.5 9.5q-2 3 -4.5 6.5t-3.5 6.5v0zM40 704q-3 -3 -6 -5t-6 -6q-2 -3 -4 -7t-3 -9q-2 -3 -3.5 -7t-2.5 -8q-3 -11 -5 -22.5t-4 -23.5q-1 -8 -2.5 -16t-2.5 -16q-1 -9 0.5 -18.5t6.5 -17.5q4 -6 10 -11t12 -9
q4 -2 8 -4.5t6 -6.5q4 -4 8 -8.5t7 -9.5q2 -2 3 -5t-1 -5q-2 0 -5 0.5t-5 1.5q-8 5 -14 12t-9 15q2 -13 5.5 -26.5t9.5 -25.5q5 -8 12 -14t16 -9q5 -2 11 -2.5t12 -2.5q4 -1 7.5 -4.5t5.5 -7.5q5 -6 10.5 -13t12.5 -10q-5 10 -7 22t0 24q1 4 2.5 8t2.5 8q1 5 0 10t-3 10
q-1 -3 -1.5 -6t-1.5 -5t-3.5 -1.5t-3.5 0.5q-7 3 -12.5 8t-10.5 11q-6 6 -10 13.5t-7 15.5l-4 2l-4 2q-6 3 -10.5 9t-7.5 12q-4 7 -6 15t-3 16v10t2 10q1 0 2 0.5t1 -0.5q1 -2 2 -5t2 -5q3 -7 8.5 -11.5t11.5 -7.5q8 -3 15.5 -4.5t14.5 -5.5q5 -2 8.5 -6t5.5 -8q2 11 1.5 21
t-4.5 20q-3 8 -8 15.5t-8 15.5q-1 6 -1 11.5t1 10.5q-2 -1 -4.5 -3t-3.5 -5q-4 -5 -5 -11.5t-1 -12.5q-1 -4 -0.5 -8t-0.5 -7q-4 2 -6.5 5t-4.5 6q-5 5 -10 8.5t-11 6.5q-3 2 -2.5 5.5t0.5 6.5q1 5 -1 9t-3 8q-3 5 -3.5 11t0.5 12q1 3 2.5 5.5t2.5 5.5q1 6 3 12t5 11
q1 2 2.5 3t1.5 3q0 1 -1 3t-1 3v5.5t1 5.5q-2 -6 -5.5 -12t-8.5 -10v0zM392 605q-4 -2 -7 -5t-4 -7q5 0 10 2t9 5q3 2 5.5 4t4.5 4l-0.5 0.5l-0.5 0.5q-5 -1 -9 -1.5t-8 -2.5v0zM273 517q2 1 4 2.5t4 1.5l4 -2t3 -3q6 -5 11 -11.5t11 -12.5l2 -2t3 -1q1 0 2.5 1.5l2.5 2.5
l10 12t10 11q2 1 3.5 2.5t3.5 2.5q2 0 4 -1t3 -1q10 -7 17.5 -15.5t17.5 -15.5q1 -7 2 -14.5t5 -13.5q1 -3 3 -6t6 -4q1 -1 2 -1t1 -2q0 -3 -1.5 -4.5t-3.5 -2.5l4 -12t2 -12q2 -10 0.5 -21t-4.5 -21q-3 -11 -8.5 -22t-13.5 -20q-3 -4 -7.5 -7.5t-9.5 -4.5q-3 -1 -6 0t-5 3
q-6 4 -10.5 9t-9.5 9q-2 1 -4 1.5t-5 0.5q-3 1 -5.5 3t-6.5 2q-3 0 -5.5 -2t-5.5 -2q-2 -1 -4 -1t-3 -1q-7 -5 -12.5 -11t-12.5 -10q-3 -2 -7 -1.5t-7 2.5q-6 4 -10 8.5t-8 10.5q-7 10 -11.5 22t-6.5 25q-2 9 -2 18t2 18q1 4 2.5 8t2.5 8q-2 1 -3.5 3t-1.5 4t1 2.5t2 0.5
q4 1 6 4t3 6q3 6 4.5 13.5t2.5 14.5q4 2 7.5 5.5l6.5 6.5q4 5 9 9l10 8v0zM287 569q-8 -3 -17.5 -5.5t-18.5 -2.5q0 -1 -0.5 -3t-2.5 -2t-2.5 1t-0.5 2q-5 -3 -10.5 -5.5t-10.5 -6.5q-4 -4 -9 -6.5t-9 -6.5q-5 -4 -9 -10t-7 -11q-6 -9 -13 -17.5t-11 -18.5
q-6 -12 -7.5 -24.5t-1.5 -25.5q-1 -24 5.5 -47.5t17.5 -45.5q3 -8 7.5 -15.5t10.5 -13.5q1 1 2.5 2t2.5 0q3 -1 5 -3l4 -4t3.5 -4t2.5 -4q0 -2 -1.5 -3t-3.5 -2q3 -6 9.5 -9t12.5 -4t12 -1.5t11 -2.5q7 -3 14 -4.5t13 -3.5q21 -4 43 -2t42 10q6 2 13.5 2.5t14.5 2.5
q5 1 10 4t8 8q-2 1 -3.5 2t-1.5 3q1 3 3 5l4 4q2 1 4 3.5t5 2.5q2 0 3 -1.5t2 0.5q6 6 10 13t7 15q11 21 17.5 44.5t5.5 48.5q0 12 -1.5 24t-6.5 24q-4 10 -11 19l-14 18q-4 7 -9 14.5t-13 12.5q-4 3 -8 5t-7 5q-4 3 -8.5 5t-9.5 5q0 -1 -0.5 -2t-1.5 -1q-2 0 -3 1.5t-1 3.5
q-10 -1 -19 2l-18 6q-2 0 -4.5 -1t-5.5 -1q-4 0 -8.5 1t-8.5 1q-4 -1 -8.5 -1.5t-8.5 0.5q-3 0 -5 0.5t-5 0.5v0zM76 521q2 -2 4.5 -3t5.5 -3q2 -1 5.5 -1.5t6.5 0.5q-4 4 -10 6t-12 1v0zM307 474q-6 0 -12.5 -2t-11.5 -8q-2 -2 -2.5 -5t-3.5 -6t-5.5 -7t-4.5 -8
q-3 -5 -4 -10.5t-1 -11.5q-1 -4 -1 -8.5t1 -8.5q2 -6 5.5 -11t7.5 -10q2 -1 3.5 -2.5t4.5 -1.5q4 0 8 -0.5t7 -2.5q5 -2 8.5 -5t8.5 -5q4 2 7.5 5t7.5 5t8 2.5t8 0.5q2 0 4 1.5t3 2.5q5 4 8 9t5 10t2 9.5t-1 8.5q0 6 -1 12t-4 12q-2 4 -5.5 8t-6.5 8q-1 2 -2 5t-3 5
q-4 5 -10.5 7t-12.5 2q-1 2 -3 3.5t-4 1.5q-3 0 -4.5 -1.5l-3.5 -3.5v0zM89 359q2 -4 4.5 -7.5t4.5 -7.5q3 -6 4.5 -12t2.5 -13q0 -2 1.5 -3t2.5 -3l28 -30l28 -30q1 -1 1 -2.5t-1 -2.5t-2 -1.5t-2 -1.5q-1 -2 0 -4t3 -3q5 -5 12 -8.5t12 -10.5q3 -5 6 -11t8 -10
q2 -2 4.5 -2.5t5.5 -0.5q2 -1 4 -1t3 -1q10 -11 20 -21.5t19 -21.5l2 -2t1 -3q0 -1 -1 -2t-2 -1q-4 -2 -8 -3.5t-7 -3.5q-4 1 -6 3.5t-5 4.5q-1 1 -3 0.5t-3 -1.5q-5 -2 -8 -6t-6 -9q-4 -5 -8 -11t-9 -11q-2 -2 -5.5 -3.5t-5.5 -3.5q-3 -2 -5 -4l-4 -4q-6 -4 -12.5 -7.5
t-12.5 -6.5q-5 -2 -9 -5l-8 -6q-11 -8 -21.5 -17t-21.5 -16q-13 -11 -26 -23l-26 -24q3 0 6 1t5 2l6 2t6 3q1 1 2.5 1.5t3.5 0.5q1 1 1 0v-2q-1 -3 -3.5 -5t-4.5 -4q-1 -3 1.5 -4.5t4.5 -1.5h6t6 2q17 13 33.5 25.5t33.5 25.5q-4 1 -8 1t-7 -1q-2 -1 -3.5 -2t-2.5 -2
q-1 1 -1.5 2t-1.5 2q-3 0 -6 -0.5t-5 1.5l2.5 2.5t2.5 1.5q4 3 9 6t9 7q3 3 6 0t6 -1q6 3 11.5 6.5t11.5 6.5q1 0 3 0.5t3 -0.5q0 -3 -2.5 -5t-4.5 -5q4 0 7.5 1t6.5 3q13 7 24.5 16.5t25.5 15.5q3 1 6.5 1.5t6.5 2.5q6 3 11.5 7.5t10.5 7.5l6 4t6 3q1 -3 1 -6.5v-6.5
q0 -15 -1.5 -30t-2.5 -29q1 -1 3 -1t3 -2q1 -3 0.5 -6t-0.5 -5t1.5 -3.5t3.5 -2.5q1 -13 1 -26v-26q1 -8 1 -16.5t1 -16.5q5 9 7 19t2 19q0 6 -0.5 11t-0.5 10q3 0 4.5 -1.5t3.5 -1.5q1 2 1.5 4t0.5 4q1 15 1.5 31t0.5 31q2 -1 3 -2t3 -2h5t5 2q3 4 2.5 9.5t0.5 10.5
q1 2 2 3t3 2q10 -8 19 -16.5t18 -17.5q17 -15 34 -31t34 -31q2 -2 4.5 -2.5t4.5 -2.5q1 -3 1.5 -6t2.5 -5q0 -1 1.5 -1t2.5 -1q1 4 1.5 7t2.5 6q0 1 1.5 1.5t2.5 -0.5q4 -2 8 -4.5t9 -3.5h4t3 1q-15 18 -30 35.5t-30 35.5q2 1 3.5 2.5t1.5 3.5t-1.5 3.5t-2.5 3.5
q-7 9 -14.5 17t-15.5 16l-4.5 4.5t-5.5 4.5q-3 0 -5.5 -2t-4.5 -4q-12 12 -24.5 23.5t-24.5 24.5q1 1 2.5 2t2.5 2q12 8 24.5 15.5t24.5 15.5l2.5 2.5t2.5 0.5q3 -1 5 -3t4 -2q3 -1 5.5 0t3.5 4q2 2 2 5t1 5q0 4 3 7t6 5q10 5 19.5 11.5t18.5 13.5q15 10 29.5 20t28.5 21
q5 4 10.5 8t10.5 8q-4 0 -7.5 -1t-7.5 0q-1 0 -2 0.5t-1 1.5t1.5 2.5t2.5 3.5q7 7 14.5 13t13.5 14q-8 -5 -16.5 -9.5t-16.5 -9.5t-16.5 -10t-16.5 -10q-1 -1 -1.5 -1h-1.5q-1 1 -1.5 2.5t-1.5 3.5q-2 -2 -4 -3t-4 -3q-14 -11 -28.5 -21.5t-28.5 -20.5q-7 -5 -14 -9t-14 -6
q-2 0 -4 0.5t-4 -0.5q-3 -1 -7 -3t-6 -5q-2 -2 -2 -5t-2 -4q-8 -6 -17 -11t-17 -10q-1 10 -1.5 20.5t-0.5 20.5q-3 0 -5 -0.5t-4 -1.5q-1 4 -1 7t-1 6q-2 0 -5.5 0.5t-4.5 3.5q-3 0 -5.5 -0.5t-5.5 -0.5q-1 -13 -2.5 -26.5t-2.5 -27.5q-8 8 -15.5 16t-15.5 17q-1 1 -2 2.5
t-1 4.5q1 1 2 2.5t1 3.5q0 -1 -1 -1.5l-1 -0.5h-2t-2 1q-3 7 -3.5 14t-5.5 12q-3 -1 -4.5 -3.5t-5.5 -2.5q-2 -1 -3.5 0t-3.5 2q-7 7 -14.5 14t-16.5 12q-4 1 -7.5 4.5l-6.5 6.5q-9 9 -17.5 18t-17.5 17q-2 2 -4 3.5t-4 2.5q-2 0 -3.5 -0.5t-2.5 -1.5q0 -2 0.5 -3.5
t0.5 -3.5q-4 5 -8 9.5t-9 9.5t-11 10t-13 7v0z" />
    <glyph glyph-name="uniE911" unicode="&#xe911;" horiz-adv-x="908" 
d="M451 828h10q31 -1 61 -7t59 -16q45 -15 86.5 -38.5t77.5 -54.5q33 -29 61 -63t48 -73q18 -34 30 -70t18 -74q4 -28 5 -56.5t-1 -56.5q-3 -48 -15.5 -94.5t-36.5 -87.5q-12 -19 -25.5 -37t-29.5 -33q-4 -2 -7.5 -3.5t-6.5 -4.5q-11 -8 -18 -18.5t-12 -21.5
q-4 10 -5.5 20.5t0.5 21.5q1 7 2.5 14.5t1.5 14.5q1 5 -1 10t-5 9q-5 -6 -10.5 -11t-10.5 -9q-18 -15 -37 -27t-39 -24q-11 -6 -21.5 -12t-21.5 -12q-5 -3 -9.5 -7.5l-8.5 -8.5l-16 -14t-16 -13q-12 -9 -25 -16t-27 -11q-12 -4 -23.5 -5.5t-23.5 -2.5h-10q-12 1 -24 3t-24 5
q-14 5 -27 12t-25 16q-10 7 -19.5 16t-18.5 17q-4 4 -9 7.5t-10 6.5q-18 10 -35.5 20t-35.5 21q-16 11 -32 22.5t-29 26.5q-3 -4 -4.5 -8t-1.5 -8q-1 -8 1 -15.5t3 -15.5q2 -11 0.5 -22t-5.5 -21q-5 10 -10.5 19t-14.5 17q-4 4 -9 7t-10 5q-16 15 -29 32t-24 36
q-24 40 -36.5 85t-16.5 91q-3 29 -2.5 58t4.5 58q4 31 13 61t21 59q18 39 43 75t56 66q35 35 76.5 62.5t87.5 45.5q26 11 53.5 18t54.5 11q14 1 20.5 1.5t20.5 1.5v0zM223 625q-8 -15 -13 -32t-8 -34q-5 -28 -6.5 -56.5t0.5 -56.5t8 -56t16 -54q14 -40 38 -74.5t56 -61.5
q3 3 6 7t6 7l-2 18t-1 19q-1 11 -0.5 22.5t1.5 22.5q2 16 6 31.5t9 29.5q-34 21 -60.5 52t-41.5 68q-14 35 -17.5 73t3.5 75v0zM685 625q7 -39 3 -79t-21 -77q-9 -22 -23 -41.5t-31 -35.5q-14 -15 -31.5 -26.5t-36.5 -20.5q3 -24 9.5 -48t15.5 -47q1 -3 3 -6t3 -6
q6 -8 12 -16.5t12 -16.5q21 18 38.5 40.5t30.5 47.5q20 38 30.5 80t13.5 85q1 28 -1 57t-9 57q-3 14 -7.5 27.5t-10.5 25.5zM459 801h-7h-6q-19 -1 -37.5 -5t-36.5 -12q-22 -10 -42 -25t-36 -34q-14 -18 -25 -38.5t-18 -42.5q-8 -26 -9.5 -53t3.5 -54q4 -24 13.5 -47.5
t23.5 -43.5q13 -20 30 -36t37 -28q11 23 24 44t29 40q6 8 8.5 17.5t2.5 18.5q1 0 2.5 0.5t2.5 1.5q2 2 2.5 5t0.5 6q-1 5 -4 10.5t-8 7.5q-4 3 -9 2.5t-9 -2.5q-1 2 -2 3.5t-2 3.5q-4 4 -11 3t-10 -6q-4 -6 -2 -12.5t8 -10.5q-2 0 -4 -0.5t-2 -2.5q0 -4 2 -7l4 -6
q-7 4 -14 7t-13 9q-4 3 -6 7.5t-4 8.5q-5 12 -9 24t-6 24q-1 6 -1 11.5t2 10.5q2 7 6.5 13.5t10.5 12.5q8 9 17 17.5t19 16.5q10 10 21.5 19t23.5 16q9 5 18.5 9t19.5 6q2 3 5 5.5t6 4.5q6 5 13 8t14 7q9 5 18.5 10t17.5 13q-2 -7 -6 -13t-7 -12q-3 -4 -5 -8t-1 -9
q6 -1 12.5 0t12.5 3q10 3 20 7.5t19 10.5q-10 -10 -18 -22t-15 -24l-4 -8t-4 -9q1 -3 3.5 -5t5.5 -4q7 0 14 1.5t14 2.5q17 3 33.5 6t33.5 1q-8 -2 -15 -5.5t-13 -9.5q-10 -8 -17.5 -18t-13.5 -21q4 -8 10 -15.5t15 -12.5q7 -4 15 -6.5t16 -4.5q-22 -1 -42 -11.5t-33 -28.5
q-3 -3 -5 -7.5t-3 -9.5q-1 -13 -0.5 -26t-0.5 -26q0 -9 -1 -18t-3 -17q-2 -17 -3.5 -33t-0.5 -32q28 14 51.5 36t39.5 49q14 25 22 52.5t9 55.5q1 26 -3.5 51.5t-14.5 49.5q-9 21 -21.5 40t-29.5 35q-19 18 -42.5 31.5t-49.5 20.5q-10 2 -20.5 3.5t-21.5 2.5h-4v0zM212 847
v0q4 -14 8.5 -28t6.5 -28q7 5 15 10t17 10q-12 8 -24 17.5t-23 18.5zM696 847v0q-11 -9 -23 -18.5t-24 -17.5q9 -5 17 -10t15 -10q2 14 6.5 28t8.5 28zM319 919v0v0q2 -21 2 -41.5t-4 -40.5q12 4 25.5 8t26.5 8q-5 5 -9.5 10.5t-8.5 11.5l-17 22l-15 22v0zM589 919v0v0
l-12 -17l-12 -17q-7 -8 -13 -16.5t-13 -15.5q13 -4 26.5 -8t25.5 -8q0 2 -0.5 4.5t-0.5 5.5q-1 5 -1.5 10t-1.5 10q0 13 0.5 26t1.5 26v0zM454 960v0v0q-4 -16 -8.5 -32t-10.5 -31q-3 -9 -7 -18t-10 -17q18 2 36 2t36 -2q-6 7 -10 16t-7 18q-6 16 -10.5 32t-8.5 32v0v0z" />
    </font>
</defs>
</svg>
